ComicNeue-Angular_Light.ufo
<glyph name="exclam" format="1">
  <advance width="175"/>
  <unicode hex="0021"/>
  <outline>
    <contour>
      <point x="103" y="165" type="line"/>
      <point x="103" y="698" type="line"/>
      <point x="67" y="691" type="line"/>
      <point x="67" y="156" type="line"/>
    </contour>
    <contour>
      <point x="104" y="73" type="line"/>
      <point x="67" y="66" type="line"/>
      <point x="61" y="2" type="line"/>
      <point x="97" y="9" type="line"/>
    </contour>
  </outline>
</glyph>
<glyph name="quotedbl" format="1">
  <advance width="302"/>
  <unicode hex="0022"/>
  <outline>
    <contour>
      <point x="109" y="530" type="line"/>
      <point x="109" y="696" type="line"/>
      <point x="74" y="688" type="line"/>
      <point x="74" y="523" type="line"/>
    </contour>
    <contour>
      <point x="234" y="530" type="line"/>
      <point x="234" y="696" type="line"/>
      <point x="199" y="688" type="line"/>
      <point x="199" y="523" type="line"/>
    </contour>
  </outline>
</glyph>
<glyph name="numbersign" format="1">
  <advance width="741"/>
  <unicode hex="0023"/>
  <outline>
    <contour>
      <point x="681" y="449" type="line"/>
      <point x="535" y="449" type="line"/>
      <point x="480" y="256" type="line"/>
      <point x="644" y="256" type="line"/>
      <point x="634" y="221" type="line"/>
      <point x="469" y="221" type="line"/>
      <point x="408" y="4" type="line"/>
      <point x="370" y="1" type="line"/>
      <point x="434" y="221" type="line"/>
      <point x="251" y="221" type="line"/>
      <point x="189" y="4" type="line"/>
      <point x="152" y="1" type="line"/>
      <point x="215" y="221" type="line"/>
      <point x="65" y="221" type="line"/>
      <point x="75" y="256" type="line"/>
      <point x="226" y="256" type="line"/>
      <point x="281" y="449" type="line"/>
      <point x="106" y="449" type="line"/>
      <point x="116" y="483" type="line"/>
      <point x="291" y="483" type="line"/>
      <point x="353" y="697" type="line"/>
      <point x="389" y="700" type="line"/>
      <point x="327" y="483" type="line"/>
      <point x="510" y="483" type="line"/>
      <point x="570" y="696" type="line"/>
      <point x="608" y="699" type="line"/>
      <point x="545" y="483" type="line"/>
      <point x="690" y="483" type="line"/>
    </contour>
    <contour>
      <point x="444" y="256" type="line"/>
      <point x="500" y="449" type="line"/>
      <point x="316" y="449" type="line"/>
      <point x="261" y="256" type="line"/>
    </contour>
  </outline>
</glyph>
<glyph name="dollar" format="1">
  <advance width="595"/>
  <unicode hex="0024"/>
  <outline>
    <contour>
      <point x="329" y="647" type="line"/>
      <point x="418" y="646"/>
      <point x="505" y="618"/>
      <point x="505" y="545" type="curve" smooth="yes"/>
      <point x="505" y="533" type="line"/>
      <point x="540" y="542" type="line"/>
      <point x="540" y="551" type="line" smooth="yes"/>
      <point x="540" y="664"/>
      <point x="402" y="686"/>
      <point x="329" y="688" type="curve"/>
      <point x="329" y="759" type="line"/>
      <point x="295" y="752" type="line"/>
      <point x="295" y="685" type="line"/>
      <point x="213" y="681"/>
      <point x="103" y="637"/>
      <point x="103" y="521" type="curve" smooth="yes"/>
      <point x="103" y="431"/>
      <point x="201" y="379"/>
      <point x="295" y="350" type="curve"/>
      <point x="295" y="39" type="line"/>
      <point x="221" y="48"/>
      <point x="143" y="81"/>
      <point x="113" y="147" type="curve"/>
      <point x="69" y="140" type="line"/>
      <point x="99" y="58"/>
      <point x="186" y="7"/>
      <point x="295" y="-1" type="curve"/>
      <point x="295" y="-76" type="line"/>
      <point x="329" y="-69" type="line"/>
      <point x="329" y="0" type="line"/>
      <point x="442" y="12"/>
      <point x="543" y="80"/>
      <point x="543" y="189" type="curve" smooth="yes"/>
      <point x="543" y="275"/>
      <point x="469" y="340"/>
      <point x="329" y="381" type="curve"/>
    </contour>
    <contour>
      <point x="149" y="521" type="curve" smooth="yes"/>
      <point x="149" y="568"/>
      <point x="176" y="631"/>
      <point x="295" y="645" type="curve"/>
      <point x="295" y="391" type="line"/>
      <point x="191" y="427"/>
      <point x="149" y="466"/>
    </contour>
    <contour>
      <point x="498" y="187" type="curve" smooth="yes"/>
      <point x="498" y="80"/>
      <point x="387" y="49"/>
      <point x="329" y="39" type="curve"/>
      <point x="329" y="340" type="line"/>
      <point x="415" y="310"/>
      <point x="498" y="276"/>
    </contour>
  </outline>
</glyph>
<glyph name="percent" format="1">
  <advance width="718"/>
  <unicode hex="0025"/>
  <outline>
    <contour>
      <point x="193" y="440" type="curve" smooth="yes"/>
      <point x="121" y="440"/>
      <point x="61" y="499"/>
      <point x="61" y="571" type="curve" smooth="yes"/>
      <point x="61" y="643"/>
      <point x="121" y="702"/>
      <point x="193" y="702" type="curve" smooth="yes"/>
      <point x="265" y="702"/>
      <point x="324" y="643"/>
      <point x="324" y="571" type="curve" smooth="yes"/>
      <point x="324" y="499"/>
      <point x="265" y="440"/>
    </contour>
    <contour>
      <point x="193" y="667" type="curve" smooth="yes"/>
      <point x="141" y="667"/>
      <point x="97" y="623"/>
      <point x="97" y="571" type="curve" smooth="yes"/>
      <point x="97" y="519"/>
      <point x="141" y="475"/>
      <point x="193" y="475" type="curve" smooth="yes"/>
      <point x="245" y="475"/>
      <point x="289" y="519"/>
      <point x="289" y="571" type="curve" smooth="yes"/>
      <point x="289" y="623"/>
      <point x="245" y="667"/>
    </contour>
    <contour>
      <point x="532" y="-8" type="curve" smooth="yes"/>
      <point x="460" y="-8"/>
      <point x="401" y="51"/>
      <point x="401" y="123" type="curve" smooth="yes"/>
      <point x="401" y="195"/>
      <point x="460" y="254"/>
      <point x="532" y="254" type="curve" smooth="yes"/>
      <point x="604" y="254"/>
      <point x="663" y="195"/>
      <point x="663" y="123" type="curve" smooth="yes"/>
      <point x="663" y="51"/>
      <point x="604" y="-8"/>
    </contour>
    <contour>
      <point x="532" y="219" type="curve" smooth="yes"/>
      <point x="480" y="219"/>
      <point x="436" y="175"/>
      <point x="436" y="123" type="curve" smooth="yes"/>
      <point x="436" y="71"/>
      <point x="480" y="27"/>
      <point x="532" y="27" type="curve" smooth="yes"/>
      <point x="584" y="27"/>
      <point x="628" y="71"/>
      <point x="628" y="123" type="curve" smooth="yes"/>
      <point x="628" y="175"/>
      <point x="584" y="219"/>
    </contour>
    <contour>
      <point x="541" y="697" type="line"/>
      <point x="584" y="697" type="line"/>
      <point x="190" y="0" type="line"/>
      <point x="146" y="0" type="line"/>
    </contour>
  </outline>
</glyph>
<glyph name="ampersand" format="1">
  <advance width="652"/>
  <unicode hex="0026"/>
  <outline>
    <contour>
      <point x="488" y="154" type="line"/>
      <point x="498" y="175"/>
      <point x="520" y="232"/>
      <point x="537" y="281" type="curve"/>
      <point x="509" y="312" type="line"/>
      <point x="494" y="263"/>
      <point x="473" y="205"/>
      <point x="463" y="183" type="curve"/>
      <point x="295" y="383" type="line"/>
      <point x="383" y="435"/>
      <point x="438" y="473"/>
      <point x="438" y="563" type="curve" smooth="yes"/>
      <point x="438" y="632"/>
      <point x="369" y="698"/>
      <point x="295" y="698" type="curve" smooth="yes"/>
      <point x="222" y="698"/>
      <point x="153" y="633"/>
      <point x="153" y="560" type="curve" smooth="yes"/>
      <point x="153" y="499"/>
      <point x="205" y="431"/>
      <point x="238" y="393" type="curve"/>
      <point x="150" y="345"/>
      <point x="62" y="292"/>
      <point x="62" y="178" type="curve" smooth="yes"/>
      <point x="62" y="66"/>
      <point x="167" y="-4"/>
      <point x="263" y="-4" type="curve" smooth="yes"/>
      <point x="322" y="-4"/>
      <point x="414" y="36"/>
      <point x="469" y="122" type="curve"/>
      <point x="567" y="4" type="line"/>
      <point x="594" y="26" type="line"/>
    </contour>
    <contour>
      <point x="188" y="560" type="curve" smooth="yes"/>
      <point x="188" y="619"/>
      <point x="245" y="663"/>
      <point x="295" y="663" type="curve" smooth="yes"/>
      <point x="349" y="663"/>
      <point x="404" y="612"/>
      <point x="404" y="563" type="curve" smooth="yes"/>
      <point x="404" y="519"/>
      <point x="398" y="477"/>
      <point x="270" y="411" type="curve"/>
      <point x="238" y="444"/>
      <point x="188" y="507"/>
    </contour>
    <contour>
      <point x="263" y="31" type="curve" smooth="yes"/>
      <point x="197" y="31"/>
      <point x="98" y="77"/>
      <point x="98" y="178" type="curve" smooth="yes"/>
      <point x="98" y="279"/>
      <point x="170" y="319"/>
      <point x="263" y="368" type="curve"/>
      <point x="444" y="150" type="line"/>
      <point x="394" y="68"/>
      <point x="314" y="31"/>
    </contour>
  </outline>
</glyph>
<glyph name="parenleft" format="1">
  <advance width="367"/>
  <unicode hex="0028"/>
  <outline>
    <contour>
      <point x="284" y="-94" type="curve"/>
      <point x="259" y="-119" type="line"/>
      <point x="137" y="4"/>
      <point x="69" y="200"/>
      <point x="69" y="356" type="curve" smooth="yes"/>
      <point x="69" y="525"/>
      <point x="149" y="705"/>
      <point x="281" y="819" type="curve"/>
      <point x="303" y="792" type="line"/>
      <point x="187" y="691"/>
      <point x="105" y="528"/>
      <point x="105" y="356" type="curve" smooth="yes"/>
      <point x="105" y="196"/>
      <point x="180" y="10"/>
    </contour>
  </outline>
</glyph>
<glyph name="parenright" format="1">
  <advance width="367"/>
  <unicode hex="0029"/>
  <outline>
    <contour>
      <point x="68" y="794" type="curve"/>
      <point x="94" y="819" type="line"/>
      <point x="258" y="674"/>
      <point x="305" y="477"/>
      <point x="305" y="344" type="curve" smooth="yes"/>
      <point x="305" y="181"/>
      <point x="234" y="9"/>
      <point x="113" y="-118" type="curve"/>
      <point x="91" y="-91" type="line"/>
      <point x="202" y="29"/>
      <point x="269" y="189"/>
      <point x="269" y="344" type="curve" smooth="yes"/>
      <point x="269" y="600"/>
      <point x="113" y="752"/>
    </contour>
  </outline>
</glyph>
<glyph name="plus" format="1">
  <advance width="431"/>
  <unicode hex="002B"/>
  <outline>
    <contour>
      <point x="381" y="269" type="line"/>
      <point x="237" y="269" type="line"/>
      <point x="237" y="407" type="line"/>
      <point x="202" y="399" type="line"/>
      <point x="202" y="269" type="line"/>
      <point x="66" y="269" type="line"/>
      <point x="59" y="233" type="line"/>
      <point x="202" y="233" type="line"/>
      <point x="202" y="91" type="line"/>
      <point x="237" y="98" type="line"/>
      <point x="237" y="233" type="line"/>
      <point x="373" y="233" type="line"/>
    </contour>
  </outline>
</glyph>
<glyph name="hyphen" format="1">
  <advance width="432"/>
  <unicode hex="002D"/>
  <outline>
    <contour>
      <point x="359" y="232" type="line"/>
      <point x="366" y="268" type="line"/>
      <point x="84" y="268" type="line"/>
      <point x="77" y="232" type="line"/>
    </contour>
  </outline>
</glyph>
<glyph name="two" format="1">
  <advance width="514"/>
  <unicode hex="0032"/>
  <outline>
    <contour>
      <point x="102" y="35" type="curve"/>
      <point x="459" y="35" type="line"/>
      <point x="452" y="0" type="line"/>
      <point x="68" y="0" type="line"/>
      <point x="68" y="18" type="line" smooth="yes"/>
      <point x="68" y="175"/>
      <point x="129" y="234"/>
      <point x="243" y="311" type="curve" smooth="yes"/>
      <point x="364" y="393"/>
      <point x="416" y="454"/>
      <point x="416" y="521" type="curve" smooth="yes"/>
      <point x="416" y="612"/>
      <point x="326" y="646"/>
      <point x="266" y="646" type="curve" smooth="yes"/>
      <point x="175" y="646"/>
      <point x="115" y="583"/>
      <point x="93" y="554" type="curve"/>
      <point x="69" y="580" type="line"/>
      <point x="97" y="616"/>
      <point x="163" y="681"/>
      <point x="266" y="681" type="curve" smooth="yes"/>
      <point x="408" y="681"/>
      <point x="451" y="585"/>
      <point x="451" y="521" type="curve" smooth="yes"/>
      <point x="451" y="422"/>
      <point x="355" y="344"/>
      <point x="261" y="281" type="curve" smooth="yes"/>
      <point x="160" y="214"/>
      <point x="110" y="168"/>
    </contour>
  </outline>
</glyph>
<glyph name="three" format="1">
  <advance width="539"/>
  <unicode hex="0033"/>
  <outline>
    <contour>
      <point x="329" y="390" type="curve"/>
      <point x="408" y="416"/>
      <point x="462" y="470"/>
      <point x="462" y="547" type="curve" smooth="yes"/>
      <point x="462" y="627"/>
      <point x="377" y="691"/>
      <point x="268" y="691" type="curve" smooth="yes"/>
      <point x="185" y="691"/>
      <point x="124" y="646"/>
      <point x="98" y="623" type="curve"/>
      <point x="124" y="597" type="line"/>
      <point x="146" y="616"/>
      <point x="199" y="655"/>
      <point x="268" y="655" type="curve" smooth="yes"/>
      <point x="364" y="655"/>
      <point x="424" y="599"/>
      <point x="424" y="547" type="curve" smooth="yes"/>
      <point x="424" y="474"/>
      <point x="351" y="415"/>
      <point x="230" y="403" type="curve"/>
      <point x="231" y="367" type="line"/>
      <point x="341" y="363"/>
      <point x="441" y="323"/>
      <point x="441" y="201" type="curve" smooth="yes"/>
      <point x="441" y="35"/>
      <point x="276" y="31"/>
      <point x="275" y="31" type="curve" smooth="yes"/>
      <point x="201" y="31"/>
      <point x="132" y="74"/>
      <point x="106" y="136" type="curve"/>
      <point x="73" y="121" type="line"/>
      <point x="105" y="35"/>
      <point x="192" y="-4"/>
      <point x="275" y="-4" type="curve" smooth="yes"/>
      <point x="354" y="-4"/>
      <point x="479" y="51"/>
      <point x="479" y="201" type="curve" smooth="yes"/>
      <point x="479" y="294"/>
      <point x="436" y="356"/>
    </contour>
  </outline>
</glyph>
<glyph name="four" format="1">
  <advance width="508"/>
  <unicode hex="0034"/>
  <outline>
    <contour>
      <point x="392" y="9" type="line"/>
      <point x="358" y="2" type="line"/>
      <point x="358" y="174" type="line"/>
      <point x="49" y="179" type="line"/>
      <point x="392" y="670" type="line"/>
      <point x="392" y="206" type="line"/>
      <point x="459" y="205" type="line"/>
      <point x="451" y="172" type="line"/>
      <point x="392" y="173" type="line"/>
    </contour>
    <contour>
      <point x="111" y="210" type="line"/>
      <point x="358" y="207" type="line"/>
      <point x="358" y="566" type="line"/>
    </contour>
  </outline>
</glyph>
<glyph name="five" format="1">
  <advance width="552"/>
  <unicode hex="0035"/>
  <outline>
    <contour>
      <point x="263" y="0" type="curve" smooth="yes"/>
      <point x="402" y="0"/>
      <point x="498" y="115"/>
      <point x="497" y="260" type="curve" smooth="yes"/>
      <point x="496" y="370"/>
      <point x="422" y="483"/>
      <point x="296" y="483" type="curve" smooth="yes"/>
      <point x="235" y="483"/>
      <point x="181" y="454"/>
      <point x="139" y="422" type="curve"/>
      <point x="161" y="645" type="line"/>
      <point x="465" y="645" type="line"/>
      <point x="472" y="679" type="line"/>
      <point x="131" y="679" type="line"/>
      <point x="101" y="377" type="line"/>
      <point x="135" y="365" type="line"/>
      <point x="167" y="412"/>
      <point x="230" y="449"/>
      <point x="296" y="449" type="curve" smooth="yes"/>
      <point x="378" y="449"/>
      <point x="465" y="382"/>
      <point x="464" y="260" type="curve" smooth="yes"/>
      <point x="463" y="144"/>
      <point x="387" y="33"/>
      <point x="263" y="34" type="curve" smooth="yes"/>
      <point x="208" y="34"/>
      <point x="138" y="66"/>
      <point x="104" y="134" type="curve"/>
      <point x="72" y="122" type="line"/>
      <point x="125" y="28"/>
      <point x="213" y="0"/>
    </contour>
  </outline>
</glyph>
<glyph name="six" format="1">
  <advance width="536"/>
  <unicode hex="0036"/>
  <outline>
    <contour>
      <point x="349" y="687" type="curve"/>
      <point x="361" y="656" type="line"/>
      <point x="264" y="612"/>
      <point x="159" y="506"/>
      <point x="115" y="382" type="curve"/>
      <point x="165" y="412"/>
      <point x="227" y="440"/>
      <point x="290" y="440" type="curve" smooth="yes"/>
      <point x="310" y="440"/>
      <point x="479" y="433"/>
      <point x="479" y="240" type="curve" smooth="yes"/>
      <point x="479" y="35"/>
      <point x="333" y="-5"/>
      <point x="280" y="-5" type="curve" smooth="yes"/>
      <point x="130" y="-5"/>
      <point x="63" y="109"/>
      <point x="63" y="245" type="curve" smooth="yes"/>
      <point x="63" y="447"/>
      <point x="175" y="607"/>
    </contour>
    <contour>
      <point x="102" y="324" type="curve"/>
      <point x="98" y="300"/>
      <point x="97" y="272"/>
      <point x="97" y="245" type="curve" smooth="yes"/>
      <point x="97" y="67"/>
      <point x="196" y="29"/>
      <point x="280" y="29" type="curve" smooth="yes"/>
      <point x="327" y="29"/>
      <point x="446" y="68"/>
      <point x="446" y="240" type="curve" smooth="yes"/>
      <point x="446" y="393"/>
      <point x="327" y="405"/>
      <point x="290" y="405" type="curve" smooth="yes"/>
      <point x="189" y="405"/>
      <point x="121" y="347"/>
    </contour>
  </outline>
</glyph>
<glyph name="eight" format="1">
  <advance width="537"/>
  <unicode hex="0038"/>
  <outline>
    <contour>
      <point x="273" y="-3" type="curve" smooth="yes"/>
      <point x="154" y="-3"/>
      <point x="69" y="73"/>
      <point x="69" y="176" type="curve"/>
      <point x="72" y="280"/>
      <point x="153" y="336"/>
      <point x="227" y="373" type="curve"/>
      <point x="161" y="402"/>
      <point x="103" y="447"/>
      <point x="103" y="521" type="curve" smooth="yes"/>
      <point x="103" y="630"/>
      <point x="183" y="694"/>
      <point x="284" y="694" type="curve" smooth="yes"/>
      <point x="386" y="694"/>
      <point x="459" y="629"/>
      <point x="459" y="537" type="curve"/>
      <point x="456" y="457"/>
      <point x="397" y="412"/>
      <point x="332" y="380" type="curve"/>
      <point x="423" y="334"/>
      <point x="477" y="265"/>
      <point x="477" y="186" type="curve" smooth="yes"/>
      <point x="477" y="78"/>
      <point x="390" y="-3"/>
    </contour>
    <contour>
      <point x="273" y="358" type="curve"/>
      <point x="194" y="326"/>
      <point x="105" y="281"/>
      <point x="105" y="170" type="curve" smooth="yes"/>
      <point x="105" y="90"/>
      <point x="179" y="33"/>
      <point x="273" y="33" type="curve" smooth="yes"/>
      <point x="352" y="33"/>
      <point x="441" y="80"/>
      <point x="441" y="183" type="curve" smooth="yes"/>
      <point x="441" y="277"/>
      <point x="353" y="334"/>
    </contour>
    <contour>
      <point x="288" y="396" type="curve"/>
      <point x="375" y="434"/>
      <point x="423" y="466"/>
      <point x="423" y="544" type="curve" smooth="yes"/>
      <point x="423" y="613"/>
      <point x="361" y="656"/>
      <point x="284" y="656" type="curve" smooth="yes"/>
      <point x="197" y="656"/>
      <point x="138" y="598"/>
      <point x="138" y="525" type="curve" smooth="yes"/>
      <point x="138" y="461"/>
      <point x="190" y="423"/>
    </contour>
  </outline>
</glyph>
<glyph name="nine" format="1">
  <advance width="536"/>
  <unicode hex="0039"/>
  <outline>
    <contour>
      <point x="194" y="0" type="line"/>
      <point x="335" y="55"/>
      <point x="479" y="210"/>
      <point x="479" y="444" type="curve" smooth="yes"/>
      <point x="479" y="581"/>
      <point x="413" y="694"/>
      <point x="264" y="694" type="curve" smooth="yes"/>
      <point x="155" y="694"/>
      <point x="63" y="597"/>
      <point x="63" y="449" type="curve" smooth="yes"/>
      <point x="63" y="255"/>
      <point x="232" y="249"/>
      <point x="251" y="249" type="curve" smooth="yes"/>
      <point x="315" y="249"/>
      <point x="378" y="277"/>
      <point x="428" y="307" type="curve"/>
      <point x="380" y="179"/>
      <point x="290" y="78"/>
      <point x="181" y="32" type="curve"/>
    </contour>
    <contour>
      <point x="440" y="364" type="curve"/>
      <point x="420" y="341"/>
      <point x="352" y="283"/>
      <point x="251" y="283" type="curve" smooth="yes"/>
      <point x="215" y="283"/>
      <point x="97" y="296"/>
      <point x="97" y="449" type="curve" smooth="yes"/>
      <point x="97" y="621"/>
      <point x="215" y="659"/>
      <point x="261" y="659" type="curve" smooth="yes"/>
      <point x="346" y="659"/>
      <point x="446" y="622"/>
      <point x="446" y="444" type="curve" smooth="yes"/>
      <point x="446" y="417"/>
      <point x="443" y="388"/>
    </contour>
  </outline>
</glyph>
<glyph name="colon" format="1">
  <advance width="240"/>
  <unicode hex="003A"/>
  <outline>
    <contour>
      <point x="166" y="442" type="line"/>
      <point x="160" y="377" type="line"/>
      <point x="105" y="369" type="line"/>
      <point x="111" y="433" type="line"/>
    </contour>
    <contour>
      <point x="138" y="74" type="line"/>
      <point x="131" y="9" type="line"/>
      <point x="77" y="1" type="line"/>
      <point x="83" y="66" type="line"/>
    </contour>
  </outline>
</glyph>
<glyph name="semicolon" format="1">
  <advance width="322"/>
  <unicode hex="003B"/>
  <outline>
    <contour>
      <point x="237" y="444" type="line"/>
      <point x="182" y="435" type="line"/>
      <point x="176" y="371" type="line"/>
      <point x="231" y="379" type="line"/>
    </contour>
    <contour>
      <point x="161" y="59" type="line"/>
      <point x="119" y="16" type="line"/>
      <point x="156" y="-6" type="line"/>
      <point x="100" y="-106" type="line"/>
      <point x="132" y="-125" type="line"/>
      <point x="220" y="28" type="line"/>
    </contour>
  </outline>
</glyph>
<glyph name="question" format="1">
  <advance width="532"/>
  <unicode hex="003F"/>
  <outline>
    <contour>
      <point x="200" y="73" type="line"/>
      <point x="163" y="66" type="line"/>
      <point x="157" y="2" type="line"/>
      <point x="194" y="9" type="line"/>
    </contour>
    <contour>
      <point x="176" y="201" type="line"/>
      <point x="193" y="170" type="line"/>
      <point x="352" y="311" type="line" smooth="yes"/>
      <point x="403" y="356"/>
      <point x="474" y="418"/>
      <point x="474" y="518" type="curve" smooth="yes"/>
      <point x="474" y="639"/>
      <point x="385" y="722"/>
      <point x="254" y="722" type="curve" smooth="yes"/>
      <point x="154" y="722"/>
      <point x="91" y="652"/>
      <point x="65" y="616" type="curve"/>
      <point x="90" y="592" type="line"/>
      <point x="110" y="621"/>
      <point x="165" y="686"/>
      <point x="254" y="686" type="curve" smooth="yes"/>
      <point x="390" y="686"/>
      <point x="439" y="599"/>
      <point x="439" y="518" type="curve" smooth="yes"/>
      <point x="439" y="438"/>
      <point x="378" y="383"/>
      <point x="332" y="341" type="curve" smooth="yes"/>
    </contour>
  </outline>
</glyph>
<glyph name="B" format="1">
  <advance width="592"/>
  <unicode hex="0042"/>
  <outline>
    <contour>
      <point x="347" y="364" type="curve"/>
      <point x="348.549" y="364.029"/>
      <point x="350.096" y="364.043"/>
      <point x="351.639" y="364.043" type="curve" smooth="yes"/>
      <point x="457.678" y="364.043"/>
      <point x="549" y="296.608"/>
      <point x="549" y="201" type="curve" smooth="yes"/>
      <point x="549" y="22"/>
      <point x="253" y="0"/>
      <point x="126" y="0" type="curve" smooth="yes"/>
      <point x="68" y="0" type="line"/>
      <point x="68" y="681" type="line"/>
      <point x="275" y="681" type="line" smooth="yes"/>
      <point x="408" y="681"/>
      <point x="487" y="616"/>
      <point x="487" y="509" type="curve" smooth="yes"/>
      <point x="487" y="452"/>
      <point x="464" y="388"/>
    </contour>
    <contour>
      <point x="103" y="342" type="line"/>
      <point x="103" y="35" type="line"/>
      <point x="109.871" y="34.6946"/>
      <point x="118.087" y="34.5175"/>
      <point x="127.405" y="34.5175" type="curve" smooth="yes"/>
      <point x="240.139" y="34.5175"/>
      <point x="514" y="60.451"/>
      <point x="514" y="199" type="curve" smooth="yes"/>
      <point x="514" y="319"/>
      <point x="381" y="342"/>
      <point x="303" y="342" type="curve" smooth="yes"/>
    </contour>
    <contour>
      <point x="103" y="646" type="line"/>
      <point x="103" y="376" type="line"/>
      <point x="257" y="376" type="line" smooth="yes"/>
      <point x="342" y="376"/>
      <point x="452" y="403"/>
      <point x="452" y="509" type="curve" smooth="yes"/>
      <point x="452" y="573"/>
      <point x="421" y="646"/>
      <point x="275" y="646" type="curve" smooth="yes"/>
    </contour>
  </outline>
</glyph>
<glyph name="D" format="1">
  <advance width="606"/>
  <unicode hex="0044"/>
  <outline>
    <contour>
      <point x="68" y="-1" type="line"/>
      <point x="109" y="-10"/>
      <point x="170" y="-15"/>
      <point x="204" y="-15" type="curve" smooth="yes"/>
      <point x="427" y="-15"/>
      <point x="553" y="98"/>
      <point x="553" y="300" type="curve" smooth="yes"/>
      <point x="553" y="452"/>
      <point x="483" y="566"/>
      <point x="352" y="627" type="curve" smooth="yes"/>
      <point x="291" y="656"/>
      <point x="204" y="680"/>
      <point x="84" y="680" type="curve" smooth="yes"/>
      <point x="68" y="680" type="line"/>
    </contour>
    <contour>
      <point x="103" y="646" type="line"/>
      <point x="149" y="645"/>
      <point x="250" y="636"/>
      <point x="335" y="595" type="curve"/>
      <point x="457" y="538"/>
      <point x="518" y="439"/>
      <point x="518" y="300" type="curve" smooth="yes"/>
      <point x="518" y="194"/>
      <point x="481" y="116"/>
      <point x="410" y="70" type="curve"/>
      <point x="344" y="29"/>
      <point x="261" y="20"/>
      <point x="204" y="20" type="curve" smooth="yes"/>
      <point x="162" y="20"/>
      <point x="125" y="23"/>
      <point x="103" y="27" type="curve"/>
    </contour>
  </outline>
</glyph>
<glyph name="E" format="1">
  <advance width="601"/>
  <unicode hex="0045"/>
  <outline>
    <contour>
      <point x="105" y="37" type="line"/>
      <point x="105" y="336" type="line"/>
      <point x="486" y="336" type="line"/>
      <point x="497" y="373" type="line"/>
      <point x="105" y="373" type="line"/>
      <point x="105" y="644" type="line"/>
      <point x="533" y="644" type="line"/>
      <point x="541" y="681" type="line"/>
      <point x="68" y="681" type="line"/>
      <point x="68" y="0" type="line"/>
      <point x="530" y="0" type="line"/>
      <point x="545" y="37" type="line"/>
    </contour>
  </outline>
</glyph>
<glyph name="F" format="1">
  <advance width="495"/>
  <unicode hex="0046"/>
  <outline>
    <contour>
      <point x="491" y="644" type="line"/>
      <point x="100" y="644" type="line"/>
      <point x="100" y="365" type="line"/>
      <point x="446" y="365" type="line"/>
      <point x="439" y="327" type="line"/>
      <point x="100" y="327" type="line"/>
      <point x="100" y="9" type="line"/>
      <point x="63" y="2" type="line"/>
      <point x="63" y="681" type="line"/>
      <point x="499" y="681" type="line"/>
    </contour>
  </outline>
</glyph>
<glyph name="G" format="1">
  <advance width="734"/>
  <unicode hex="0047"/>
  <outline>
    <contour>
      <point x="648" y="238" type="curve"/>
      <point x="663" y="237"/>
      <point x="676" y="233"/>
      <point x="684" y="231" type="curve"/>
      <point x="684" y="267" type="line"/>
      <point x="652" y="273"/>
      <point x="614" y="277"/>
      <point x="577" y="277" type="curve" smooth="yes"/>
      <point x="522" y="277"/>
      <point x="464" y="269"/>
      <point x="418" y="256" type="curve"/>
      <point x="418" y="219" type="line"/>
      <point x="458" y="235"/>
      <point x="516" y="243"/>
      <point x="574" y="243" type="curve" smooth="yes"/>
      <point x="580" y="243"/>
      <point x="594" y="243"/>
      <point x="615" y="241" type="curve"/>
      <point x="581" y="110"/>
      <point x="491" y="33"/>
      <point x="355" y="33" type="curve" smooth="yes"/>
      <point x="185" y="33"/>
      <point x="97" y="190"/>
      <point x="97" y="341" type="curve" smooth="yes"/>
      <point x="97" y="444"/>
      <point x="180" y="648"/>
      <point x="375" y="648" type="curve" smooth="yes"/>
      <point x="502" y="648"/>
      <point x="584" y="584"/>
      <point x="613" y="482" type="curve"/>
      <point x="647" y="489" type="line"/>
      <point x="612" y="597"/>
      <point x="516" y="682"/>
      <point x="375" y="682" type="curve" smooth="yes"/>
      <point x="187" y="682"/>
      <point x="61" y="500"/>
      <point x="61" y="341" type="curve" smooth="yes"/>
      <point x="61" y="149"/>
      <point x="183" y="-2"/>
      <point x="355" y="-2" type="curve" smooth="yes"/>
      <point x="585" y="-2"/>
      <point x="635" y="178"/>
    </contour>
  </outline>
</glyph>
<glyph name="I" format="1">
  <advance width="427"/>
  <unicode hex="0049"/>
  <outline>
    <contour>
      <point x="361" y="644" type="line"/>
      <point x="238" y="644" type="line"/>
      <point x="238" y="37" type="line"/>
      <point x="368" y="37" type="line"/>
      <point x="361" y="0" type="line"/>
      <point x="66" y="0" type="line"/>
      <point x="73" y="37" type="line"/>
      <point x="201" y="37" type="line"/>
      <point x="201" y="644" type="line"/>
      <point x="66" y="644" type="line"/>
      <point x="73" y="681" type="line"/>
      <point x="368" y="681" type="line"/>
    </contour>
  </outline>
</glyph>
<glyph name="J" format="1">
  <advance width="459"/>
  <unicode hex="004A"/>
  <outline>
    <contour>
      <point x="195" y="679" type="line"/>
      <point x="195" y="641" type="line"/>
      <point x="354" y="641" type="line"/>
      <point x="354" y="157" type="line" smooth="yes"/>
      <point x="354" y="84"/>
      <point x="302" y="33"/>
      <point x="222" y="33" type="curve" smooth="yes"/>
      <point x="144" y="33"/>
      <point x="90" y="86"/>
      <point x="90" y="157" type="curve" smooth="yes"/>
      <point x="90" y="191" type="line"/>
      <point x="53" y="183" type="line"/>
      <point x="53" y="157" type="line" smooth="yes"/>
      <point x="53" y="67"/>
      <point x="124" y="1"/>
      <point x="222" y="1" type="curve" smooth="yes"/>
      <point x="322" y="1"/>
      <point x="391" y="65"/>
      <point x="391" y="157" type="curve" smooth="yes"/>
      <point x="391" y="641" type="line"/>
      <point x="444" y="641" type="line"/>
      <point x="444" y="679" type="line"/>
    </contour>
  </outline>
</glyph>
<glyph name="L" format="1">
  <advance width="477"/>
  <unicode hex="004C"/>
  <outline>
    <contour>
      <point x="68" y="1" type="line"/>
      <point x="68" y="669" type="line"/>
      <point x="105" y="676" type="line"/>
      <point x="105" y="40" type="line"/>
      <point x="457" y="66" type="line"/>
      <point x="461" y="30" type="line"/>
    </contour>
  </outline>
</glyph>
<glyph name="M" format="1">
  <advance width="855"/>
  <unicode hex="004D"/>
  <outline>
    <contour>
      <point x="646" y="622" type="line"/>
      <point x="778" y="1" type="line"/>
      <point x="816" y="9" type="line"/>
      <point x="669" y="680" type="line"/>
      <point x="627" y="672" type="line"/>
      <point x="418" y="20" type="line"/>
      <point x="231" y="679" type="line"/>
      <point x="193" y="672" type="line"/>
      <point x="52" y="2" type="line"/>
      <point x="88" y="9" type="line"/>
      <point x="215" y="607" type="line"/>
      <point x="388" y="1" type="line"/>
      <point x="450" y="9" type="line"/>
    </contour>
  </outline>
</glyph>
<glyph name="P" format="1">
  <advance width="535"/>
  <unicode hex="0050"/>
  <outline>
    <contour>
      <point x="104" y="245" type="curve"/>
      <point x="104" y="9" type="line"/>
      <point x="68" y="2" type="line"/>
      <point x="68" y="675" type="line"/>
      <point x="92" y="677"/>
      <point x="138" y="679"/>
      <point x="173" y="679" type="curve" smooth="yes"/>
      <point x="312" y="679"/>
      <point x="511" y="651"/>
      <point x="511" y="476" type="curve" smooth="yes"/>
      <point x="511" y="313"/>
      <point x="283" y="251"/>
    </contour>
    <contour>
      <point x="104" y="642" type="line"/>
      <point x="104" y="281" type="line"/>
      <point x="336" y="291"/>
      <point x="474" y="370"/>
      <point x="474" y="472" type="curve" smooth="yes"/>
      <point x="474" y="565"/>
      <point x="409" y="642"/>
      <point x="162" y="642" type="curve" smooth="yes"/>
    </contour>
  </outline>
</glyph>
<glyph name="T" format="1">
  <advance width="512"/>
  <unicode hex="0054"/>
  <outline>
    <contour>
      <point x="233" y="2" type="line"/>
      <point x="233" y="644" type="line"/>
      <point x="11" y="644" type="line"/>
      <point x="11" y="681" type="line"/>
      <point x="509" y="681" type="line"/>
      <point x="509" y="644" type="line"/>
      <point x="271" y="644" type="line"/>
      <point x="271" y="9" type="line"/>
    </contour>
  </outline>
</glyph>
<glyph name="V" format="1">
  <advance width="530"/>
  <unicode hex="0056"/>
  <outline>
    <contour>
      <point x="251" y="46" type="line"/>
      <point x="49" y="677" type="line"/>
      <point x="15" y="662" type="line"/>
      <point x="227" y="1" type="line"/>
      <point x="277" y="10" type="line"/>
      <point x="525" y="663" type="line"/>
      <point x="489" y="677" type="line"/>
    </contour>
  </outline>
</glyph>
<glyph name="W" format="1">
  <advance width="868"/>
  <unicode hex="0057"/>
  <outline>
    <contour>
      <point x="868" y="678" type="line"/>
      <point x="641" y="10" type="line"/>
      <point x="592" y="1" type="line"/>
      <point x="436" y="626" type="line"/>
      <point x="251" y="10" type="line"/>
      <point x="210" y="1" type="line"/>
      <point x="12" y="673" type="line"/>
      <point x="47" y="680" type="line"/>
      <point x="230" y="55" type="line"/>
      <point x="414" y="671" type="line"/>
      <point x="459" y="680" type="line"/>
      <point x="616" y="48" type="line"/>
      <point x="827" y="670" type="line"/>
    </contour>
  </outline>
</glyph>
<glyph name="X" format="1">
  <advance width="636"/>
  <unicode hex="0058"/>
  <outline>
    <contour>
      <point x="559" y="21" type="line"/>
      <point x="529" y="0" type="line"/>
      <point x="313" y="313" type="line"/>
      <point x="83" y="0" type="line"/>
      <point x="53" y="22" type="line"/>
      <point x="291" y="346" type="line"/>
      <point x="75" y="660" type="line"/>
      <point x="106" y="681" type="line"/>
      <point x="314" y="377" type="line"/>
      <point x="537" y="681" type="line"/>
      <point x="567" y="659" type="line"/>
      <point x="336" y="345" type="line"/>
    </contour>
  </outline>
</glyph>
<glyph name="Y" format="1">
  <advance width="618"/>
  <unicode hex="0059"/>
  <outline>
    <contour>
      <point x="322" y="243" type="line"/>
      <point x="68" y="677" type="line"/>
      <point x="29" y="677" type="line"/>
      <point x="301" y="210" type="line"/>
      <point x="178" y="0" type="line"/>
      <point x="217" y="0" type="line"/>
      <point x="619" y="677" type="line"/>
      <point x="579" y="677" type="line"/>
    </contour>
  </outline>
</glyph>
<glyph name="Z" format="1">
  <advance width="611"/>
  <unicode hex="005A"/>
  <outline>
    <contour>
      <point x="72" y="0" type="line"/>
      <point x="549" y="0" type="line"/>
      <point x="557" y="42" type="line"/>
      <point x="100" y="42" type="line"/>
      <point x="567" y="637" type="line"/>
      <point x="547" y="681" type="line"/>
      <point x="92" y="681" type="line"/>
      <point x="83" y="639" type="line"/>
      <point x="518" y="639" type="line"/>
      <point x="52" y="44" type="line"/>
    </contour>
  </outline>
</glyph>
<glyph name="bracketright" format="1">
  <advance width="305"/>
  <unicode hex="005D"/>
  <outline>
    <contour>
      <point x="92" y="818" type="line"/>
      <point x="83" y="782" type="line"/>
      <point x="210" y="782" type="line"/>
      <point x="210" y="-94" type="line"/>
      <point x="75" y="-94" type="line"/>
      <point x="68" y="-129" type="line"/>
      <point x="246" y="-129" type="line"/>
      <point x="246" y="818" type="line"/>
    </contour>
  </outline>
</glyph>
<glyph name="asciicircum" format="1">
  <advance width="490"/>
  <unicode hex="005E"/>
  <outline>
    <contour>
      <point x="141" y="751" type="line"/>
      <point x="119" y="779" type="line"/>
      <point x="261" y="894" type="line"/>
      <point x="380" y="779" type="line"/>
      <point x="357" y="753" type="line"/>
      <point x="257" y="843" type="line"/>
    </contour>
  </outline>
</glyph>
<glyph name="grave" format="1">
  <advance width="490"/>
  <unicode hex="0060"/>
  <outline>
    <contour>
      <point x="330" y="778" type="line"/>
      <point x="300" y="758" type="line"/>
      <point x="171" y="888" type="line"/>
      <point x="213" y="913" type="line"/>
    </contour>
  </outline>
</glyph>
<glyph name="g" format="1">
  <advance width="512"/>
  <unicode hex="0067"/>
  <outline>
    <contour>
      <point x="455" y="506" type="line"/>
      <point x="417" y="500" type="line"/>
      <point x="417" y="459" type="line"/>
      <point x="382" y="479"/>
      <point x="336" y="501"/>
      <point x="290" y="501" type="curve" smooth="yes"/>
      <point x="146" y="501"/>
      <point x="53" y="370"/>
      <point x="53" y="240" type="curve" smooth="yes"/>
      <point x="53" y="104"/>
      <point x="137" y="0"/>
      <point x="249" y="0" type="curve" smooth="yes"/>
      <point x="306" y="0"/>
      <point x="367" y="35"/>
      <point x="408" y="103" type="curve"/>
      <point x="406" y="8" type="line" smooth="yes"/>
      <point x="405" y="-40"/>
      <point x="389" y="-155"/>
      <point x="244" y="-155" type="curve" smooth="yes"/>
      <point x="203" y="-155"/>
      <point x="162" y="-149"/>
      <point x="132" y="-144" type="curve"/>
      <point x="125" y="-181" type="line"/>
      <point x="157" y="-187"/>
      <point x="200" y="-193"/>
      <point x="244" y="-193" type="curve" smooth="yes"/>
      <point x="368" y="-193"/>
      <point x="441" y="-121"/>
      <point x="444" y="9" type="curve" smooth="yes"/>
    </contour>
    <contour>
      <point x="413" y="269" type="line" smooth="yes"/>
      <point x="413" y="91"/>
      <point x="322" y="35"/>
      <point x="244" y="34" type="curve"/>
      <point x="130" y="34"/>
      <point x="87" y="156"/>
      <point x="87" y="233" type="curve" smooth="yes"/>
      <point x="87" y="354"/>
      <point x="169" y="465"/>
      <point x="292" y="465" type="curve" smooth="yes"/>
      <point x="336" y="465"/>
      <point x="386" y="445"/>
      <point x="413" y="425" type="curve"/>
    </contour>
  </outline>
</glyph>
<glyph name="h" format="1">
  <advance width="494"/>
  <unicode hex="0068"/>
  <outline>
    <contour>
      <point x="105" y="698" type="line"/>
      <point x="68" y="689" type="line"/>
      <point x="68" y="2" type="line"/>
      <point x="105" y="9" type="line"/>
      <point x="105" y="194" type="line" smooth="yes"/>
      <point x="105" y="228"/>
      <point x="110" y="263"/>
      <point x="122" y="291" type="curve"/>
      <point x="141" y="329"/>
      <point x="228" y="470"/>
      <point x="322" y="470" type="curve" smooth="yes"/>
      <point x="396" y="470"/>
      <point x="416" y="347"/>
      <point x="416" y="131" type="curve" smooth="yes"/>
      <point x="416" y="61"/>
      <point x="416" y="17"/>
      <point x="415" y="2" type="curve"/>
      <point x="450" y="9" type="line"/>
      <point x="451" y="32"/>
      <point x="451" y="78"/>
      <point x="451" y="137" type="curve" smooth="yes"/>
      <point x="451" y="380"/>
      <point x="423" y="505"/>
      <point x="322" y="505" type="curve" smooth="yes"/>
      <point x="239" y="505"/>
      <point x="142" y="397"/>
      <point x="105" y="315" type="curve"/>
    </contour>
  </outline>
</glyph>
<glyph name="m" format="1">
  <advance width="807"/>
  <unicode hex="006D"/>
  <outline>
    <contour>
      <point x="116" y="313" type="curve"/>
      <point x="103" y="294"/>
      <point x="102" y="255"/>
      <point x="102" y="255" type="curve"/>
      <point x="102" y="9" type="line"/>
      <point x="65" y="2" type="line"/>
      <point x="65" y="482" type="line"/>
      <point x="102" y="490" type="line"/>
      <point x="102" y="344" type="line"/>
      <point x="143" y="418"/>
      <point x="234" y="511"/>
      <point x="313" y="511" type="curve" smooth="yes"/>
      <point x="376" y="511"/>
      <point x="416" y="489"/>
      <point x="440" y="383" type="curve"/>
      <point x="482" y="457"/>
      <point x="564" y="511"/>
      <point x="627" y="511" type="curve" smooth="yes"/>
      <point x="686" y="511"/>
      <point x="759" y="480"/>
      <point x="759" y="329" type="curve" smooth="yes"/>
      <point x="759" y="9" type="line"/>
      <point x="721" y="2" type="line"/>
      <point x="721" y="326" type="line" smooth="yes"/>
      <point x="721" y="457"/>
      <point x="667" y="479"/>
      <point x="627" y="479" type="curve" smooth="yes"/>
      <point x="567" y="479"/>
      <point x="444" y="399"/>
      <point x="444" y="274" type="curve" smooth="yes"/>
      <point x="444" y="9" type="line"/>
      <point x="406" y="2" type="line"/>
      <point x="406" y="336" type="line" smooth="yes"/>
      <point x="406" y="467"/>
      <point x="352" y="481"/>
      <point x="313" y="481" type="curve" smooth="yes"/>
      <point x="266" y="481"/>
      <point x="188" y="430"/>
    </contour>
  </outline>
</glyph>
<glyph name="n" format="1">
  <advance width="526"/>
  <unicode hex="006E"/>
  <outline>
    <contour>
      <point x="105" y="500" type="line"/>
      <point x="68" y="493" type="line"/>
      <point x="68" y="2" type="line"/>
      <point x="104" y="10" type="line"/>
      <point x="105" y="126" type="line" smooth="yes"/>
      <point x="106" y="202"/>
      <point x="125" y="272"/>
      <point x="160" y="337" type="curve" smooth="yes"/>
      <point x="218" y="445"/>
      <point x="274" y="467"/>
      <point x="324" y="467" type="curve" smooth="yes"/>
      <point x="375" y="467"/>
      <point x="404" y="444"/>
      <point x="417" y="386" type="curve"/>
      <point x="431" y="333"/>
      <point x="433" y="246"/>
      <point x="433" y="144" type="curve" smooth="yes"/>
      <point x="433" y="3" type="line"/>
      <point x="469" y="10" type="line"/>
      <point x="469" y="109" type="line" smooth="yes"/>
      <point x="469" y="244"/>
      <point x="466" y="333"/>
      <point x="452" y="397" type="curve"/>
      <point x="434" y="465"/>
      <point x="392" y="501"/>
      <point x="327" y="501" type="curve" smooth="yes"/>
      <point x="217" y="501"/>
      <point x="129" y="383"/>
      <point x="105" y="282" type="curve"/>
    </contour>
  </outline>
</glyph>
<glyph name="p" format="1">
  <advance width="508"/>
  <unicode hex="0070"/>
  <outline>
    <contour>
      <point x="311" y="496" type="curve"/>
      <point x="223" y="496"/>
      <point x="156" y="458"/>
      <point x="105" y="412" type="curve"/>
      <point x="105" y="497" type="line"/>
      <point x="68" y="488" type="line"/>
      <point x="68" y="-199" type="line"/>
      <point x="105" y="-192" type="line"/>
      <point x="105" y="42" type="line"/>
      <point x="144" y="26"/>
      <point x="203" y="7"/>
      <point x="255" y="7" type="curve" smooth="yes"/>
      <point x="411" y="7"/>
      <point x="466" y="139"/>
      <point x="466" y="271" type="curve" smooth="yes"/>
      <point x="466" y="375"/>
      <point x="419" y="493"/>
    </contour>
    <contour>
      <point x="256" y="41" type="curve" smooth="yes"/>
      <point x="193" y="41"/>
      <point x="127" y="70"/>
      <point x="105" y="80" type="curve"/>
      <point x="105" y="364" type="line"/>
      <point x="124" y="392"/>
      <point x="188" y="460"/>
      <point x="300" y="460" type="curve" smooth="yes"/>
      <point x="408" y="460"/>
      <point x="432" y="344"/>
      <point x="432" y="267" type="curve" smooth="yes"/>
      <point x="432" y="146"/>
      <point x="387" y="41"/>
    </contour>
  </outline>
</glyph>
<glyph name="q" format="1">
  <advance width="513"/>
  <unicode hex="0071"/>
  <outline>
    <contour>
      <point x="394" y="-202" type="line"/>
      <point x="432" y="-195" type="line"/>
      <point x="455" y="508" type="line"/>
      <point x="419" y="510" type="line"/>
      <point x="419" y="487" type="line"/>
      <point x="382" y="493"/>
      <point x="352" y="496"/>
      <point x="330" y="496" type="curve" smooth="yes"/>
      <point x="171" y="496"/>
      <point x="52" y="392"/>
      <point x="52" y="208" type="curve" smooth="yes"/>
      <point x="52" y="86"/>
      <point x="138" y="-9"/>
      <point x="255" y="-9" type="curve" smooth="yes"/>
      <point x="324" y="-9"/>
      <point x="369" y="6"/>
      <point x="403" y="56" type="curve"/>
    </contour>
    <contour>
      <point x="408" y="159" type="line" smooth="yes"/>
      <point x="405" y="72"/>
      <point x="346" y="23"/>
      <point x="256" y="23" type="curve" smooth="yes"/>
      <point x="158" y="23"/>
      <point x="85" y="98"/>
      <point x="85" y="206" type="curve" smooth="yes"/>
      <point x="85" y="373"/>
      <point x="186" y="463"/>
      <point x="330" y="463" type="curve" smooth="yes"/>
      <point x="352" y="463"/>
      <point x="389" y="459"/>
      <point x="418" y="454" type="curve"/>
    </contour>
  </outline>
</glyph>
<glyph name="v" format="1">
  <advance width="437"/>
  <unicode hex="0076"/>
  <outline>
    <contour>
      <point x="432" y="483" type="line"/>
      <point x="398" y="498" type="line"/>
      <point x="223" y="41" type="line"/>
      <point x="50" y="497" type="line"/>
      <point x="13" y="483" type="line"/>
      <point x="202" y="2" type="line"/>
      <point x="249" y="11" type="line"/>
    </contour>
  </outline>
</glyph>
<glyph name="y" format="1">
  <advance width="490"/>
  <unicode hex="0079"/>
  <outline>
    <contour>
      <point x="442" y="497" type="line"/>
      <point x="256" y="98" type="line"/>
      <point x="59" y="496" type="line"/>
      <point x="24" y="479" type="line"/>
      <point x="237" y="53" type="line"/>
      <point x="125" y="-185" type="line"/>
      <point x="160" y="-202" type="line"/>
      <point x="476" y="480" type="line"/>
    </contour>
  </outline>
</glyph>
<glyph name="z" format="1">
  <advance width="443"/>
  <unicode hex="007A"/>
  <outline>
    <contour>
      <point x="404" y="0" type="line"/>
      <point x="411" y="37" type="line"/>
      <point x="78" y="37" type="line"/>
      <point x="420" y="468" type="line"/>
      <point x="402" y="502" type="line"/>
      <point x="65" y="502" type="line"/>
      <point x="57" y="465" type="line"/>
      <point x="375" y="465" type="line"/>
      <point x="33" y="35" type="line"/>
      <point x="51" y="0" type="line"/>
    </contour>
  </outline>
</glyph>
<glyph name="bar" format="1">
  <advance width="245"/>
  <unicode hex="007C"/>
  <outline>
    <contour>
      <point x="143" y="-65" type="line"/>
      <point x="143" y="763" type="line"/>
      <point x="108" y="756" type="line"/>
      <point x="108" y="-72" type="line"/>
    </contour>
  </outline>
</glyph>
<glyph name="asciitilde" format="1">
  <advance width="635"/>
  <unicode hex="007E"/>
  <outline>
    <contour>
      <point x="544" y="321" type="curve"/>
      <point x="577" y="305" type="line"/>
      <point x="562" y="261"/>
      <point x="517" y="156"/>
      <point x="426" y="156" type="curve" smooth="yes"/>
      <point x="366" y="156"/>
      <point x="334" y="201"/>
      <point x="304" y="242" type="curve" smooth="yes"/>
      <point x="274" y="284"/>
      <point x="251" y="310"/>
      <point x="212" y="310" type="curve" smooth="yes"/>
      <point x="141" y="310"/>
      <point x="110" y="230"/>
      <point x="100" y="197" type="curve"/>
      <point x="69" y="211" type="line"/>
      <point x="87" y="274"/>
      <point x="135" y="346"/>
      <point x="212" y="346" type="curve" smooth="yes"/>
      <point x="272" y="346"/>
      <point x="304" y="301"/>
      <point x="333" y="261" type="curve" smooth="yes"/>
      <point x="365" y="219"/>
      <point x="387" y="192"/>
      <point x="426" y="192" type="curve" smooth="yes"/>
      <point x="472" y="192"/>
      <point x="521" y="250"/>
    </contour>
  </outline>
</glyph>
<glyph name="sterling" format="1">
  <advance width="754"/>
  <unicode hex="00A3"/>
  <outline>
    <contour>
      <point x="659" y="140" type="line"/>
      <point x="640" y="64"/>
      <point x="606" y="25"/>
      <point x="540" y="25" type="curve" smooth="yes"/>
      <point x="496" y="25"/>
      <point x="448" y="47"/>
      <point x="400" y="77" type="curve" smooth="yes"/>
      <point x="371" y="95"/>
      <point x="346" y="109"/>
      <point x="309" y="109" type="curve" smooth="yes"/>
      <point x="292" y="109"/>
      <point x="270" y="105"/>
      <point x="236" y="93" type="curve"/>
      <point x="258" y="135"/>
      <point x="264" y="168"/>
      <point x="264" y="204" type="curve" smooth="yes"/>
      <point x="264" y="221"/>
      <point x="258" y="260"/>
      <point x="235" y="342" type="curve"/>
      <point x="489" y="342" type="line"/>
      <point x="496" y="376" type="line"/>
      <point x="229" y="376" type="line"/>
      <point x="219" y="425"/>
      <point x="218" y="460"/>
      <point x="218" y="491" type="curve" smooth="yes"/>
      <point x="218" y="633"/>
      <point x="281" y="700"/>
      <point x="410" y="700" type="curve" smooth="yes"/>
      <point x="530" y="700"/>
      <point x="586" y="634"/>
      <point x="603" y="534" type="curve"/>
      <point x="638" y="538" type="line"/>
      <point x="630" y="611"/>
      <point x="580" y="735"/>
      <point x="415" y="735" type="curve" smooth="yes"/>
      <point x="265" y="735"/>
      <point x="182" y="653"/>
      <point x="182" y="492" type="curve" smooth="yes"/>
      <point x="182" y="460"/>
      <point x="184" y="424"/>
      <point x="192" y="376" type="curve"/>
      <point x="83" y="376" type="line"/>
      <point x="76" y="342" type="line"/>
      <point x="203" y="342" type="line"/>
      <point x="226" y="265"/>
      <point x="229" y="229"/>
      <point x="229" y="194" type="curve" smooth="yes"/>
      <point x="229" y="150"/>
      <point x="197" y="77"/>
      <point x="139" y="30" type="curve"/>
      <point x="162" y="5" type="line"/>
      <point x="219" y="57"/>
      <point x="284" y="74"/>
      <point x="309" y="74" type="curve" smooth="yes"/>
      <point x="336" y="74"/>
      <point x="356" y="66"/>
      <point x="379" y="50" type="curve" smooth="yes"/>
      <point x="432" y="13"/>
      <point x="492" y="-10"/>
      <point x="542" y="-10" type="curve" smooth="yes"/>
      <point x="584" y="-10"/>
      <point x="670" y="15"/>
      <point x="694" y="134" type="curve"/>
    </contour>
  </outline>
</glyph>
<glyph name="dieresis" format="1">
  <advance width="490"/>
  <unicode hex="00A8"/>
  <outline>
    <contour>
      <point x="198" y="669" type="line"/>
      <point x="143" y="660" type="line"/>
      <point x="137" y="596" type="line"/>
      <point x="191" y="604" type="line"/>
    </contour>
    <contour>
      <point x="365" y="669" type="line"/>
      <point x="310" y="660" type="line"/>
      <point x="303" y="596" type="line"/>
      <point x="357" y="604" type="line"/>
    </contour>
  </outline>
</glyph>
<glyph name="guillemotleft" format="1">
  <advance width="599"/>
  <unicode hex="00AB"/>
  <outline>
    <contour>
      <point x="277" y="73" type="line"/>
      <point x="300" y="100" type="line"/>
      <point x="132" y="251" type="line"/>
      <point x="318" y="409" type="line"/>
      <point x="294" y="435" type="line"/>
      <point x="79" y="251" type="line"/>
    </contour>
    <contour>
      <point x="491" y="73" type="line"/>
      <point x="514" y="100" type="line"/>
      <point x="346" y="251" type="line"/>
      <point x="531" y="409" type="line"/>
      <point x="507" y="435" type="line"/>
      <point x="293" y="251" type="line"/>
    </contour>
  </outline>
</glyph>
<glyph name="logicalnot" format="1">
  <advance width="506"/>
  <unicode hex="00AC"/>
  <outline>
    <contour>
      <point x="411" y="123" type="line"/>
      <point x="412" y="276" type="line"/>
      <point x="76" y="276" type="line"/>
      <point x="83" y="308" type="line"/>
      <point x="445" y="308" type="line"/>
      <point x="444" y="134" type="line"/>
    </contour>
  </outline>
</glyph>
<glyph name="uni00AD" format="1">
  <advance width="432"/>
  <unicode hex="00AD"/>
  <outline>
    <contour>
      <point x="366" y="272" type="line"/>
      <point x="84" y="272" type="line"/>
      <point x="77" y="236" type="line"/>
      <point x="359" y="236" type="line"/>
    </contour>
  </outline>
</glyph>
<glyph name="degree" format="1">
  <advance width="257"/>
  <unicode hex="00B0"/>
  <outline>
    <contour>
      <point x="131" y="521" type="curve" smooth="yes"/>
      <point x="202" y="521"/>
      <point x="259" y="578"/>
      <point x="259" y="649" type="curve" smooth="yes"/>
      <point x="259" y="720"/>
      <point x="202" y="777"/>
      <point x="131" y="777" type="curve" smooth="yes"/>
      <point x="60" y="777"/>
      <point x="3" y="720"/>
      <point x="3" y="649" type="curve" smooth="yes"/>
      <point x="3" y="578"/>
      <point x="60" y="521"/>
    </contour>
    <contour>
      <point x="131" y="739" type="curve" smooth="yes"/>
      <point x="180" y="739"/>
      <point x="221" y="698"/>
      <point x="221" y="649" type="curve" smooth="yes"/>
      <point x="221" y="600"/>
      <point x="180" y="558"/>
      <point x="131" y="558" type="curve" smooth="yes"/>
      <point x="82" y="558"/>
      <point x="40" y="600"/>
      <point x="40" y="649" type="curve" smooth="yes"/>
      <point x="40" y="698"/>
      <point x="82" y="739"/>
    </contour>
  </outline>
</glyph>
<glyph name="twosuperior" format="1">
  <advance width="227"/>
  <unicode hex="00B2"/>
  <outline>
    <contour>
      <point x="25" y="755" type="line"/>
      <point x="52" y="795"/>
      <point x="86" y="807"/>
      <point x="118" y="807" type="curve" smooth="yes"/>
      <point x="157" y="807"/>
      <point x="196" y="783"/>
      <point x="196" y="744" type="curve" smooth="yes"/>
      <point x="196" y="709"/>
      <point x="168" y="675"/>
      <point x="103" y="632" type="curve" smooth="yes"/>
      <point x="37" y="588"/>
      <point x="6" y="551"/>
      <point x="6" y="470" type="curve" smooth="yes"/>
      <point x="6" y="457" type="line"/>
      <point x="221" y="457" type="line"/>
      <point x="227" y="483" type="line"/>
      <point x="32" y="483" type="line"/>
      <point x="40" y="549"/>
      <point x="64" y="576"/>
      <point x="118" y="610" type="curve" smooth="yes"/>
      <point x="163" y="639"/>
      <point x="222" y="688"/>
      <point x="222" y="744" type="curve" smooth="yes"/>
      <point x="222" y="778"/>
      <point x="198" y="834"/>
      <point x="118" y="834" type="curve" smooth="yes"/>
      <point x="72" y="834"/>
      <point x="28" y="806"/>
      <point x="5" y="776" type="curve"/>
    </contour>
  </outline>
</glyph>
<glyph name="threesuperior" format="1">
  <advance width="226"/>
  <unicode hex="00B3"/>
  <outline>
    <contour>
      <point x="37" y="774" type="line"/>
      <point x="63" y="799"/>
      <point x="89" y="805"/>
      <point x="115" y="805" type="curve" smooth="yes"/>
      <point x="154" y="805"/>
      <point x="193" y="787"/>
      <point x="193" y="752" type="curve" smooth="yes"/>
      <point x="193" y="697"/>
      <point x="130" y="680"/>
      <point x="89" y="679" type="curve"/>
      <point x="89" y="654" type="line"/>
      <point x="167" y="654"/>
      <point x="202" y="617"/>
      <point x="202" y="569" type="curve" smooth="yes"/>
      <point x="202" y="498"/>
      <point x="141" y="482"/>
      <point x="116" y="482" type="curve" smooth="yes"/>
      <point x="73" y="482"/>
      <point x="40" y="500"/>
      <point x="30" y="538" type="curve"/>
      <point x="5" y="529" type="line"/>
      <point x="25" y="471"/>
      <point x="78" y="456"/>
      <point x="116" y="456" type="curve" smooth="yes"/>
      <point x="160" y="456"/>
      <point x="228" y="486"/>
      <point x="228" y="569" type="curve" smooth="yes"/>
      <point x="228" y="611"/>
      <point x="201" y="652"/>
      <point x="154" y="668" type="curve"/>
      <point x="197" y="685"/>
      <point x="220" y="721"/>
      <point x="220" y="751" type="curve" smooth="yes"/>
      <point x="220" y="797"/>
      <point x="177" y="831"/>
      <point x="117" y="831" type="curve" smooth="yes"/>
      <point x="73" y="831"/>
      <point x="37" y="810"/>
      <point x="18" y="792" type="curve"/>
    </contour>
  </outline>
</glyph>
<glyph name="acute" format="1">
  <advance width="490"/>
  <unicode hex="00B4"/>
  <outline>
    <contour>
      <point x="162" y="617" type="line"/>
      <point x="187" y="593" type="line"/>
      <point x="339" y="698" type="line"/>
      <point x="301" y="730" type="line"/>
    </contour>
  </outline>
</glyph>
<glyph name="paragraph" format="1">
  <advance width="549"/>
  <unicode hex="00B6"/>
  <outline>
    <contour>
      <point x="351" y="756" type="curve"/>
      <point x="351" y="756"/>
      <point x="369" y="761"/>
      <point x="370" y="761" type="curve"/>
      <point x="364" y="795" type="line"/>
      <point x="226" y="768"/>
      <point x="61" y="687"/>
      <point x="61" y="537" type="curve" smooth="yes"/>
      <point x="61" y="379"/>
      <point x="210" y="363"/>
      <point x="307" y="363" type="curve"/>
      <point x="295" y="234"/>
      <point x="276" y="77"/>
      <point x="245" y="-81" type="curve"/>
      <point x="280" y="-78" type="line"/>
      <point x="344" y="246"/>
      <point x="354" y="506"/>
      <point x="354" y="647" type="curve" smooth="yes"/>
      <point x="354" y="697"/>
      <point x="352" y="739"/>
    </contour>
    <contour>
      <point x="434" y="744" type="line"/>
      <point x="435" y="729"/>
      <point x="436" y="699"/>
      <point x="436" y="653" type="curve" smooth="yes"/>
      <point x="436" y="516"/>
      <point x="426" y="245"/>
      <point x="361" y="-82" type="curve"/>
      <point x="398" y="-78" type="line"/>
      <point x="462" y="252"/>
      <point x="472" y="517"/>
      <point x="472" y="654" type="curve" smooth="yes"/>
      <point x="472" y="700"/>
      <point x="471" y="732"/>
      <point x="470" y="748" type="curve"/>
    </contour>
  </outline>
</glyph>
<glyph name="periodcentered" format="1">
  <advance width="490"/>
  <unicode hex="00B7"/>
  <outline>
    <contour>
      <point x="281" y="290" type="line"/>
      <point x="226" y="281" type="line"/>
      <point x="220" y="217" type="line"/>
      <point x="274" y="225" type="line"/>
    </contour>
  </outline>
</glyph>
<glyph name="ordmasculine" format="1">
  <advance width="275"/>
  <unicode hex="00BA"/>
  <outline>
    <contour>
      <point x="131" y="371" type="curve" smooth="yes"/>
      <point x="54" y="371"/>
      <point x="2" y="438"/>
      <point x="2" y="516" type="curve" smooth="yes"/>
      <point x="2" y="610"/>
      <point x="69" y="688"/>
      <point x="150" y="688" type="curve" smooth="yes"/>
      <point x="221" y="688"/>
      <point x="277" y="621"/>
      <point x="277" y="543" type="curve" smooth="yes"/>
      <point x="277" y="450"/>
      <point x="211" y="371"/>
    </contour>
    <contour>
      <point x="147" y="660" type="curve" smooth="yes"/>
      <point x="88" y="660"/>
      <point x="36" y="594"/>
      <point x="36" y="516" type="curve" smooth="yes"/>
      <point x="36" y="449"/>
      <point x="76" y="398"/>
      <point x="131" y="398" type="curve" smooth="yes"/>
      <point x="189" y="398"/>
      <point x="244" y="463"/>
      <point x="244" y="538" type="curve" smooth="yes"/>
      <point x="244" y="598"/>
      <point x="205" y="660"/>
    </contour>
  </outline>
</glyph>
<glyph name="guillemotright" format="1">
  <advance width="599"/>
  <unicode hex="00BB"/>
  <outline>
    <contour>
      <point x="335" y="73" type="line"/>
      <point x="534" y="251" type="line"/>
      <point x="319" y="435" type="line"/>
      <point x="296" y="410" type="line"/>
      <point x="480" y="252" type="line"/>
      <point x="313" y="99" type="line"/>
    </contour>
    <contour>
      <point x="124" y="73" type="line"/>
      <point x="321" y="251" type="line"/>
      <point x="105" y="435" type="line"/>
      <point x="82" y="410" type="line"/>
      <point x="267" y="252" type="line"/>
      <point x="99" y="99" type="line"/>
    </contour>
  </outline>
</glyph>
<glyph name="questiondown" format="1">
  <advance width="491"/>
  <unicode hex="00BF"/>
  <outline>
    <contour>
      <point x="275" y="649" type="line"/>
      <point x="312" y="656" type="line"/>
      <point x="318" y="720" type="line"/>
      <point x="281" y="713" type="line"/>
    </contour>
    <contour>
      <point x="299" y="521" type="line"/>
      <point x="282" y="552" type="line"/>
      <point x="123" y="411" type="line" smooth="yes"/>
      <point x="72" y="366"/>
      <point x="1" y="304"/>
      <point x="1" y="204" type="curve" smooth="yes"/>
      <point x="1" y="83"/>
      <point x="90" y="0"/>
      <point x="221" y="0" type="curve" smooth="yes"/>
      <point x="321" y="0"/>
      <point x="384" y="70"/>
      <point x="410" y="106" type="curve"/>
      <point x="385" y="130" type="line"/>
      <point x="365" y="101"/>
      <point x="310" y="36"/>
      <point x="221" y="36" type="curve" smooth="yes"/>
      <point x="85" y="36"/>
      <point x="36" y="123"/>
      <point x="36" y="204" type="curve" smooth="yes"/>
      <point x="36" y="284"/>
      <point x="97" y="339"/>
      <point x="143" y="381" type="curve" smooth="yes"/>
    </contour>
  </outline>
</glyph>
<glyph name="Agrave" format="1">
  <advance width="613"/>
  <unicode hex="00C0"/>
  <outline>
    <contour>
      <point x="402" y="770" type="line"/>
      <point x="286" y="904" type="line"/>
      <point x="245" y="879" type="line"/>
      <point x="373" y="750" type="line"/>
    </contour>
    <contour>
      <point x="355" y="679" type="line"/>
      <point x="296" y="668" type="line"/>
      <point x="137" y="241" type="line"/>
      <point x="64" y="227" type="line"/>
      <point x="72" y="191" type="line"/>
      <point x="120" y="201" type="line"/>
      <point x="54" y="22" type="line"/>
      <point x="87" y="4" type="line"/>
      <point x="164" y="211" type="line"/>
      <point x="451" y="271" type="line"/>
      <point x="538" y="7" type="line"/>
      <point x="568" y="29" type="line"/>
    </contour>
    <contour>
      <point x="180" y="251" type="line"/>
      <point x="327" y="646" type="line"/>
      <point x="439" y="304" type="line"/>
    </contour>
  </outline>
</glyph>
<glyph name="Aacute" format="1">
  <advance width="613"/>
  <unicode hex="00C1"/>
  <outline>
    <contour>
      <point x="240" y="784" type="line"/>
      <point x="264" y="760" type="line"/>
      <point x="415" y="864" type="line"/>
      <point x="378" y="896" type="line"/>
    </contour>
    <contour>
      <point x="355" y="679" type="line"/>
      <point x="296" y="668" type="line"/>
      <point x="137" y="241" type="line"/>
      <point x="64" y="227" type="line"/>
      <point x="72" y="191" type="line"/>
      <point x="120" y="201" type="line"/>
      <point x="54" y="22" type="line"/>
      <point x="87" y="4" type="line"/>
      <point x="164" y="211" type="line"/>
      <point x="451" y="271" type="line"/>
      <point x="538" y="7" type="line"/>
      <point x="568" y="29" type="line"/>
    </contour>
    <contour>
      <point x="180" y="251" type="line"/>
      <point x="327" y="646" type="line"/>
      <point x="439" y="304" type="line"/>
    </contour>
  </outline>
</glyph>
<glyph name="Atilde" format="1">
  <advance width="613"/>
  <unicode hex="00C3"/>
  <outline>
    <contour>
      <point x="355" y="679" type="line"/>
      <point x="568" y="29" type="line"/>
      <point x="538" y="7" type="line"/>
      <point x="451" y="271" type="line"/>
      <point x="164" y="211" type="line"/>
      <point x="87" y="4" type="line"/>
      <point x="54" y="22" type="line"/>
      <point x="120" y="201" type="line"/>
      <point x="72" y="191" type="line"/>
      <point x="64" y="227" type="line"/>
      <point x="137" y="241" type="line"/>
      <point x="296" y="668" type="line"/>
    </contour>
    <contour>
      <point x="180" y="251" type="line"/>
      <point x="439" y="304" type="line"/>
      <point x="327" y="646" type="line"/>
    </contour>
    <contour>
      <point x="333" y="820" type="curve" smooth="yes"/>
      <point x="359" y="781"/>
      <point x="370" y="774"/>
      <point x="391" y="774" type="curve" smooth="yes"/>
      <point x="429" y="774"/>
      <point x="453" y="821"/>
      <point x="464" y="855" type="curve"/>
      <point x="495" y="845" type="line"/>
      <point x="478" y="789"/>
      <point x="435" y="743"/>
      <point x="391" y="743" type="curve" smooth="yes"/>
      <point x="350" y="743"/>
      <point x="327" y="774"/>
      <point x="308" y="801" type="curve" smooth="yes"/>
      <point x="282" y="838"/>
      <point x="271" y="844"/>
      <point x="251" y="844" type="curve" smooth="yes"/>
      <point x="217" y="844"/>
      <point x="191" y="802"/>
      <point x="181" y="771" type="curve"/>
      <point x="151" y="781" type="line"/>
      <point x="167" y="825"/>
      <point x="199" y="876"/>
      <point x="251" y="876" type="curve" smooth="yes"/>
      <point x="293" y="876"/>
      <point x="315" y="845"/>
    </contour>
  </outline>
</glyph>
<glyph name="Egrave" format="1">
  <advance width="601"/>
  <unicode hex="00C8"/>
  <outline>
    <contour>
      <point x="360" y="770" type="line"/>
      <point x="244" y="904" type="line"/>
      <point x="203" y="879" type="line"/>
      <point x="330" y="750" type="line"/>
    </contour>
    <contour>
      <point x="105" y="37" type="line"/>
      <point x="105" y="336" type="line"/>
      <point x="486" y="336" type="line"/>
      <point x="497" y="373" type="line"/>
      <point x="105" y="373" type="line"/>
      <point x="105" y="644" type="line"/>
      <point x="533" y="644" type="line"/>
      <point x="541" y="681" type="line"/>
      <point x="68" y="681" type="line"/>
      <point x="68" y="0" type="line"/>
      <point x="530" y="0" type="line"/>
      <point x="545" y="37" type="line"/>
    </contour>
  </outline>
</glyph>
<glyph name="Eacute" format="1">
  <advance width="601"/>
  <unicode hex="00C9"/>
  <outline>
    <contour>
      <point x="211" y="784" type="line"/>
      <point x="237" y="760" type="line"/>
      <point x="387" y="864" type="line"/>
      <point x="349" y="896" type="line"/>
    </contour>
    <contour>
      <point x="105" y="37" type="line"/>
      <point x="105" y="336" type="line"/>
      <point x="486" y="336" type="line"/>
      <point x="497" y="373" type="line"/>
      <point x="105" y="373" type="line"/>
      <point x="105" y="644" type="line"/>
      <point x="533" y="644" type="line"/>
      <point x="541" y="681" type="line"/>
      <point x="68" y="681" type="line"/>
      <point x="68" y="0" type="line"/>
      <point x="530" y="0" type="line"/>
      <point x="545" y="37" type="line"/>
    </contour>
  </outline>
</glyph>
<glyph name="Iacute" format="1">
  <advance width="427"/>
  <unicode hex="00CD"/>
  <outline>
    <contour>
      <point x="136" y="784" type="line"/>
      <point x="162" y="760" type="line"/>
      <point x="312" y="864" type="line"/>
      <point x="274" y="896" type="line"/>
    </contour>
    <contour>
      <point x="361" y="644" type="line"/>
      <point x="368" y="681" type="line"/>
      <point x="73" y="681" type="line"/>
      <point x="66" y="644" type="line"/>
      <point x="201" y="644" type="line"/>
      <point x="201" y="37" type="line"/>
      <point x="73" y="37" type="line"/>
      <point x="66" y="0" type="line"/>
      <point x="361" y="0" type="line"/>
      <point x="368" y="37" type="line"/>
      <point x="238" y="37" type="line"/>
      <point x="238" y="644" type="line"/>
    </contour>
  </outline>
</glyph>
<glyph name="Ntilde" format="1">
  <advance width="605"/>
  <unicode hex="00D1"/>
  <outline>
    <contour>
      <point x="513" y="672" type="line"/>
      <point x="547" y="679" type="line"/>
      <point x="547" y="12" type="line"/>
      <point x="495" y="1" type="line"/>
      <point x="103" y="631" type="line"/>
      <point x="103" y="11" type="line"/>
      <point x="69" y="3" type="line"/>
      <point x="68" y="666" type="line"/>
      <point x="114" y="680" type="line"/>
      <point x="513" y="45" type="line"/>
    </contour>
    <contour>
      <point x="323" y="820" type="curve" smooth="yes"/>
      <point x="349" y="781"/>
      <point x="360" y="774"/>
      <point x="381" y="774" type="curve" smooth="yes"/>
      <point x="419" y="774"/>
      <point x="443" y="821"/>
      <point x="454" y="855" type="curve"/>
      <point x="485" y="845" type="line"/>
      <point x="468" y="789"/>
      <point x="425" y="743"/>
      <point x="381" y="743" type="curve" smooth="yes"/>
      <point x="340" y="743"/>
      <point x="317" y="774"/>
      <point x="298" y="801" type="curve" smooth="yes"/>
      <point x="272" y="838"/>
      <point x="261" y="844"/>
      <point x="241" y="844" type="curve" smooth="yes"/>
      <point x="207" y="844"/>
      <point x="181" y="802"/>
      <point x="171" y="771" type="curve"/>
      <point x="141" y="781" type="line"/>
      <point x="157" y="825"/>
      <point x="189" y="876"/>
      <point x="241" y="876" type="curve" smooth="yes"/>
      <point x="283" y="876"/>
      <point x="305" y="845"/>
    </contour>
  </outline>
</glyph>
<glyph name="Oacute" format="1">
  <advance width="650"/>
  <unicode hex="00D3"/>
  <outline>
    <contour>
      <point x="276" y="784" type="line"/>
      <point x="302" y="760" type="line"/>
      <point x="453" y="864" type="line"/>
      <point x="414" y="896" type="line"/>
    </contour>
    <contour>
      <point x="308" y="-2" type="curve" smooth="yes"/>
      <point x="464" y="-2"/>
      <point x="598" y="167"/>
      <point x="598" y="368" type="curve" smooth="yes"/>
      <point x="598" y="540"/>
      <point x="494" y="682"/>
      <point x="352" y="682" type="curve" smooth="yes"/>
      <point x="196" y="682"/>
      <point x="62" y="515"/>
      <point x="62" y="314" type="curve" smooth="yes"/>
      <point x="62" y="144"/>
      <point x="165" y="-2"/>
    </contour>
    <contour>
      <point x="348" y="649" type="curve" smooth="yes"/>
      <point x="477" y="649"/>
      <point x="564" y="508"/>
      <point x="564" y="364" type="curve" smooth="yes"/>
      <point x="564" y="183"/>
      <point x="440" y="31"/>
      <point x="308" y="31" type="curve" smooth="yes"/>
      <point x="185" y="31"/>
      <point x="96" y="159"/>
      <point x="96" y="312" type="curve" smooth="yes"/>
      <point x="96" y="500"/>
      <point x="217" y="649"/>
    </contour>
  </outline>
</glyph>
<glyph name="Otilde" format="1">
  <advance width="650"/>
  <unicode hex="00D5"/>
  <outline>
    <contour>
      <point x="308" y="-2" type="curve" smooth="yes"/>
      <point x="464" y="-2"/>
      <point x="598" y="167"/>
      <point x="598" y="368" type="curve" smooth="yes"/>
      <point x="598" y="540"/>
      <point x="494" y="682"/>
      <point x="352" y="682" type="curve" smooth="yes"/>
      <point x="196" y="682"/>
      <point x="62" y="515"/>
      <point x="62" y="314" type="curve" smooth="yes"/>
      <point x="62" y="144"/>
      <point x="165" y="-2"/>
    </contour>
    <contour>
      <point x="348" y="649" type="curve" smooth="yes"/>
      <point x="477" y="649"/>
      <point x="564" y="508"/>
      <point x="564" y="364" type="curve" smooth="yes"/>
      <point x="564" y="183"/>
      <point x="440" y="31"/>
      <point x="308" y="31" type="curve" smooth="yes"/>
      <point x="185" y="31"/>
      <point x="96" y="159"/>
      <point x="96" y="312" type="curve" smooth="yes"/>
      <point x="96" y="500"/>
      <point x="217" y="649"/>
    </contour>
    <contour>
      <point x="363" y="820" type="curve" smooth="yes"/>
      <point x="345" y="845"/>
      <point x="323" y="876"/>
      <point x="281" y="876" type="curve" smooth="yes"/>
      <point x="229" y="876"/>
      <point x="197" y="825"/>
      <point x="181" y="781" type="curve"/>
      <point x="211" y="771" type="line"/>
      <point x="221" y="802"/>
      <point x="247" y="844"/>
      <point x="281" y="844" type="curve" smooth="yes"/>
      <point x="301" y="844"/>
      <point x="312" y="838"/>
      <point x="338" y="801" type="curve" smooth="yes"/>
      <point x="357" y="774"/>
      <point x="380" y="743"/>
      <point x="421" y="743" type="curve" smooth="yes"/>
      <point x="465" y="743"/>
      <point x="508" y="789"/>
      <point x="525" y="845" type="curve"/>
      <point x="494" y="855" type="line"/>
      <point x="483" y="821"/>
      <point x="459" y="774"/>
      <point x="421" y="774" type="curve" smooth="yes"/>
      <point x="400" y="774"/>
      <point x="389" y="781"/>
    </contour>
  </outline>
</glyph>
<glyph name="multiply" format="1">
  <advance width="344"/>
  <unicode hex="00D7"/>
  <outline>
    <contour>
      <point x="201" y="253" type="line"/>
      <point x="289" y="342" type="line"/>
      <point x="265" y="366" type="line"/>
      <point x="177" y="277" type="line"/>
      <point x="95" y="358" type="line"/>
      <point x="72" y="334" type="line"/>
      <point x="153" y="253" type="line"/>
      <point x="62" y="162" type="line"/>
      <point x="86" y="139" type="line"/>
      <point x="177" y="228" type="line"/>
      <point x="264" y="141" type="line"/>
      <point x="288" y="165" type="line"/>
    </contour>
  </outline>
</glyph>
<glyph name="Thorn" format="1">
  <advance width="496"/>
  <unicode hex="00DE"/>
  <outline>
    <contour>
      <point x="68" y="676" type="line"/>
      <point x="104" y="683" type="line"/>
      <point x="104" y="573" type="line"/>
      <point x="246" y="573"/>
      <point x="471" y="557"/>
      <point x="471" y="378" type="curve" smooth="yes"/>
      <point x="471" y="203"/>
      <point x="251" y="156"/>
      <point x="102" y="146" type="curve"/>
      <point x="102" y="10" type="line"/>
      <point x="68" y="3" type="line"/>
    </contour>
    <contour>
      <point x="104" y="535" type="curve"/>
      <point x="103" y="187" type="line"/>
      <point x="296" y="193"/>
      <point x="434" y="261"/>
      <point x="434" y="380" type="curve" smooth="yes"/>
      <point x="434" y="497"/>
      <point x="299" y="535"/>
    </contour>
  </outline>
</glyph>
<glyph name="agrave" format="1">
  <advance width="494"/>
  <unicode hex="00E0"/>
  <outline>
    <contour>
      <point x="332" y="602" type="line"/>
      <point x="214" y="736" type="line"/>
      <point x="171" y="713" type="line"/>
      <point x="301" y="582" type="line"/>
    </contour>
    <contour>
      <point x="437" y="475" type="line"/>
      <point x="392" y="497"/>
      <point x="342" y="513"/>
      <point x="289" y="513" type="curve" smooth="yes"/>
      <point x="116" y="513"/>
      <point x="52" y="325"/>
      <point x="52" y="222" type="curve" smooth="yes"/>
      <point x="52" y="95"/>
      <point x="131" y="7"/>
      <point x="238" y="7" type="curve" smooth="yes"/>
      <point x="293" y="7"/>
      <point x="357" y="39"/>
      <point x="399" y="65" type="curve"/>
      <point x="399" y="2" type="line"/>
      <point x="437" y="10" type="line"/>
    </contour>
    <contour>
      <point x="236" y="44" type="curve"/>
      <point x="129" y="46"/>
      <point x="91" y="144"/>
      <point x="91" y="224" type="curve" smooth="yes"/>
      <point x="91" y="316"/>
      <point x="144" y="477"/>
      <point x="294" y="477" type="curve" smooth="yes"/>
      <point x="329" y="477"/>
      <point x="378" y="459"/>
      <point x="402" y="450" type="curve"/>
      <point x="397" y="109" type="line"/>
      <point x="372" y="91"/>
      <point x="301" y="44"/>
    </contour>
  </outline>
</glyph>
<glyph name="adieresis" format="1">
  <advance width="494"/>
  <unicode hex="00E4"/>
  <outline>
    <contour>
      <point x="233" y="669" type="line"/>
      <point x="177" y="660" type="line"/>
      <point x="171" y="596" type="line"/>
      <point x="225" y="604" type="line"/>
    </contour>
    <contour>
      <point x="399" y="669" type="line"/>
      <point x="344" y="660" type="line"/>
      <point x="338" y="596" type="line"/>
      <point x="392" y="604" type="line"/>
    </contour>
    <contour>
      <point x="437" y="475" type="line"/>
      <point x="392" y="497"/>
      <point x="342" y="513"/>
      <point x="289" y="513" type="curve" smooth="yes"/>
      <point x="116" y="513"/>
      <point x="52" y="325"/>
      <point x="52" y="222" type="curve" smooth="yes"/>
      <point x="52" y="95"/>
      <point x="131" y="7"/>
      <point x="238" y="7" type="curve" smooth="yes"/>
      <point x="293" y="7"/>
      <point x="357" y="39"/>
      <point x="399" y="65" type="curve"/>
      <point x="399" y="2" type="line"/>
      <point x="437" y="10" type="line"/>
    </contour>
    <contour>
      <point x="236" y="44" type="curve"/>
      <point x="129" y="46"/>
      <point x="91" y="144"/>
      <point x="91" y="224" type="curve" smooth="yes"/>
      <point x="91" y="316"/>
      <point x="144" y="477"/>
      <point x="294" y="477" type="curve" smooth="yes"/>
      <point x="329" y="477"/>
      <point x="378" y="459"/>
      <point x="402" y="450" type="curve"/>
      <point x="397" y="109" type="line"/>
      <point x="372" y="91"/>
      <point x="301" y="44"/>
    </contour>
  </outline>
</glyph>
<glyph name="aring" format="1">
  <advance width="494"/>
  <unicode hex="00E5"/>
  <outline>
    <contour>
      <point x="437" y="475" type="curve"/>
      <point x="437" y="10" type="line"/>
      <point x="399" y="2" type="line"/>
      <point x="399" y="65" type="line"/>
      <point x="357" y="39"/>
      <point x="293" y="7"/>
      <point x="238" y="7" type="curve" smooth="yes"/>
      <point x="131" y="7"/>
      <point x="52" y="95"/>
      <point x="52" y="222" type="curve" smooth="yes"/>
      <point x="52" y="325"/>
      <point x="116" y="513"/>
      <point x="289" y="513" type="curve" smooth="yes"/>
      <point x="342" y="513"/>
      <point x="392" y="497"/>
    </contour>
    <contour>
      <point x="236" y="44" type="curve"/>
      <point x="301" y="44"/>
      <point x="372" y="91"/>
      <point x="397" y="109" type="curve"/>
      <point x="402" y="450" type="line"/>
      <point x="378" y="459"/>
      <point x="329" y="477"/>
      <point x="294" y="477" type="curve" smooth="yes"/>
      <point x="144" y="477"/>
      <point x="91" y="316"/>
      <point x="91" y="224" type="curve" smooth="yes"/>
      <point x="91" y="144"/>
      <point x="129" y="46"/>
    </contour>
    <contour>
      <point x="266" y="587" type="curve" smooth="yes"/>
      <point x="203" y="587"/>
      <point x="159" y="630"/>
      <point x="159" y="682" type="curve" smooth="yes"/>
      <point x="159" y="741"/>
      <point x="216" y="792"/>
      <point x="286" y="792" type="curve" smooth="yes"/>
      <point x="352" y="792"/>
      <point x="393" y="744"/>
      <point x="393" y="697" type="curve" smooth="yes"/>
      <point x="393" y="627"/>
      <point x="325" y="587"/>
    </contour>
    <contour>
      <point x="283" y="767" type="curve" smooth="yes"/>
      <point x="243" y="767"/>
      <point x="184" y="734"/>
      <point x="184" y="682" type="curve" smooth="yes"/>
      <point x="184" y="641"/>
      <point x="219" y="611"/>
      <point x="268" y="611" type="curve" smooth="yes"/>
      <point x="316" y="611"/>
      <point x="367" y="648"/>
      <point x="367" y="694" type="curve" smooth="yes"/>
      <point x="367" y="735"/>
      <point x="331" y="767"/>
    </contour>
  </outline>
</glyph>
<glyph name="ae" format="1">
  <advance width="854"/>
  <unicode hex="00E6"/>
  <outline>
    <contour>
      <point x="641" y="0" type="curve" smooth="yes"/>
      <point x="701" y="0"/>
      <point x="759" y="25"/>
      <point x="805" y="68" type="curve"/>
      <point x="782" y="91" type="line"/>
      <point x="743" y="54"/>
      <point x="693" y="32"/>
      <point x="641" y="32" type="curve" smooth="yes"/>
      <point x="560" y="32"/>
      <point x="489" y="84"/>
      <point x="451" y="160" type="curve"/>
      <point x="820" y="365" type="line"/>
      <point x="795" y="441"/>
      <point x="725" y="502"/>
      <point x="641" y="502" type="curve" smooth="yes"/>
      <point x="554" y="502"/>
      <point x="479" y="455"/>
      <point x="437" y="385" type="curve"/>
      <point x="437" y="475" type="line"/>
      <point x="392" y="497"/>
      <point x="342" y="513"/>
      <point x="289" y="513" type="curve" smooth="yes"/>
      <point x="116" y="513"/>
      <point x="52" y="325"/>
      <point x="52" y="222" type="curve" smooth="yes"/>
      <point x="52" y="95"/>
      <point x="131" y="7"/>
      <point x="238" y="7" type="curve" smooth="yes"/>
      <point x="293" y="7"/>
      <point x="357" y="39"/>
      <point x="399" y="65" type="curve"/>
      <point x="399" y="2" type="line"/>
      <point x="437" y="10" type="line"/>
      <point x="437" y="117" type="line"/>
      <point x="479" y="46"/>
      <point x="554" y="0"/>
    </contour>
    <contour>
      <point x="236" y="44" type="curve"/>
      <point x="129" y="46"/>
      <point x="91" y="144"/>
      <point x="91" y="224" type="curve" smooth="yes"/>
      <point x="91" y="316"/>
      <point x="144" y="477"/>
      <point x="294" y="477" type="curve" smooth="yes"/>
      <point x="329" y="477"/>
      <point x="378" y="459"/>
      <point x="402" y="450" type="curve"/>
      <point x="397" y="109" type="line"/>
      <point x="372" y="91"/>
      <point x="301" y="44"/>
    </contour>
    <contour>
      <point x="643" y="470" type="curve" smooth="yes"/>
      <point x="696" y="470"/>
      <point x="748" y="436"/>
      <point x="780" y="379" type="curve"/>
      <point x="442" y="190" type="line"/>
      <point x="436" y="214"/>
      <point x="433" y="233"/>
      <point x="433" y="251" type="curve" smooth="yes"/>
      <point x="433" y="367"/>
      <point x="523" y="470"/>
    </contour>
  </outline>
</glyph>
<glyph name="ccedilla" format="1">
  <advance width="497"/>
  <unicode hex="00E7"/>
  <outline>
    <contour>
      <point x="278" y="33" type="curve" smooth="yes"/>
      <point x="225" y="31"/>
      <point x="88" y="61"/>
      <point x="88" y="217" type="curve" smooth="yes"/>
      <point x="88" y="316"/>
      <point x="168" y="469"/>
      <point x="277" y="469" type="curve" smooth="yes"/>
      <point x="325" y="469"/>
      <point x="367" y="450"/>
      <point x="394" y="413" type="curve"/>
      <point x="420" y="438" type="line"/>
      <point x="386" y="478"/>
      <point x="333" y="502"/>
      <point x="275" y="502" type="curve" smooth="yes"/>
      <point x="140" y="502"/>
      <point x="53" y="328"/>
      <point x="53" y="215" type="curve" smooth="yes"/>
      <point x="53" y="106"/>
      <point x="137" y="17"/>
      <point x="237" y="2" type="curve"/>
      <point x="218" y="-52" type="line"/>
      <point x="239" y="-72" type="line"/>
      <point x="247" y="-68"/>
      <point x="259" y="-64"/>
      <point x="270" y="-64" type="curve" smooth="yes"/>
      <point x="304" y="-64"/>
      <point x="331" y="-91"/>
      <point x="331" y="-125" type="curve" smooth="yes"/>
      <point x="331" y="-159"/>
      <point x="304" y="-186"/>
      <point x="270" y="-186" type="curve" smooth="yes"/>
      <point x="249" y="-186"/>
      <point x="236" y="-177"/>
      <point x="225" y="-168" type="curve"/>
      <point x="208" y="-184" type="line"/>
      <point x="224" y="-200"/>
      <point x="246" y="-209"/>
      <point x="270" y="-209" type="curve" smooth="yes"/>
      <point x="317" y="-209"/>
      <point x="354" y="-172"/>
      <point x="354" y="-125" type="curve" smooth="yes"/>
      <point x="354" y="-74"/>
      <point x="315" y="-41"/>
      <point x="262" y="-41" type="curve" smooth="yes"/>
      <point x="248" y="-41" type="line"/>
      <point x="249" y="0" type="line"/>
      <point x="279" y="0" type="line"/>
      <point x="353" y="3"/>
      <point x="415" y="35"/>
      <point x="452" y="90" type="curve"/>
      <point x="427" y="115" type="line"/>
      <point x="397" y="67"/>
      <point x="342" y="36"/>
    </contour>
  </outline>
</glyph>
<glyph name="igrave" format="1">
  <advance width="207"/>
  <unicode hex="00EC"/>
  <outline>
    <contour>
      <point x="171" y="602" type="line"/>
      <point x="141" y="582" type="line"/>
      <point x="12" y="712" type="line"/>
      <point x="53" y="737" type="line"/>
    </contour>
    <contour>
      <point x="84" y="493" type="line"/>
      <point x="124" y="498" type="line"/>
      <point x="124" y="9" type="line"/>
      <point x="84" y="2" type="line"/>
    </contour>
  </outline>
</glyph>
<glyph name="iacute" format="1">
  <advance width="195"/>
  <unicode hex="00ED"/>
  <outline>
    <contour>
      <point x="34" y="617" type="line"/>
      <point x="59" y="593" type="line"/>
      <point x="211" y="698" type="line"/>
      <point x="174" y="730" type="line"/>
    </contour>
    <contour>
      <point x="71" y="493" type="line"/>
      <point x="71" y="2" type="line"/>
      <point x="111" y="9" type="line"/>
      <point x="111" y="498" type="line"/>
    </contour>
  </outline>
</glyph>
<glyph name="icircumflex" format="1">
  <advance width="236"/>
  <unicode hex="00EE"/>
  <outline>
    <contour>
      <point x="22" y="575" type="line"/>
      <point x="1" y="603" type="line"/>
      <point x="142" y="718" type="line"/>
      <point x="262" y="603" type="line"/>
      <point x="239" y="577" type="line"/>
      <point x="139" y="667" type="line"/>
    </contour>
    <contour>
      <point x="105" y="493" type="line"/>
      <point x="145" y="498" type="line"/>
      <point x="145" y="9" type="line"/>
      <point x="105" y="2" type="line"/>
    </contour>
  </outline>
</glyph>
<glyph name="idieresis" format="1">
  <advance width="236"/>
  <unicode hex="00EF"/>
  <outline>
    <contour>
      <point x="80" y="669" type="line"/>
      <point x="25" y="660" type="line"/>
      <point x="18" y="596" type="line"/>
      <point x="72" y="604" type="line"/>
    </contour>
    <contour>
      <point x="246" y="669" type="line"/>
      <point x="191" y="660" type="line"/>
      <point x="185" y="596" type="line"/>
      <point x="239" y="604" type="line"/>
    </contour>
    <contour>
      <point x="99" y="493" type="line"/>
      <point x="99" y="2" type="line"/>
      <point x="140" y="9" type="line"/>
      <point x="140" y="498" type="line"/>
    </contour>
  </outline>
</glyph>
<glyph name="ntilde" format="1">
  <advance width="526"/>
  <unicode hex="00F1"/>
  <outline>
    <contour>
      <point x="105" y="500" type="line"/>
      <point x="68" y="493" type="line"/>
      <point x="68" y="2" type="line"/>
      <point x="104" y="10" type="line"/>
      <point x="105" y="126" type="line" smooth="yes"/>
      <point x="106" y="202"/>
      <point x="125" y="272"/>
      <point x="160" y="337" type="curve" smooth="yes"/>
      <point x="218" y="445"/>
      <point x="274" y="467"/>
      <point x="324" y="467" type="curve" smooth="yes"/>
      <point x="375" y="467"/>
      <point x="404" y="444"/>
      <point x="417" y="386" type="curve"/>
      <point x="431" y="333"/>
      <point x="433" y="246"/>
      <point x="433" y="144" type="curve" smooth="yes"/>
      <point x="433" y="3" type="line"/>
      <point x="469" y="10" type="line"/>
      <point x="469" y="109" type="line" smooth="yes"/>
      <point x="469" y="244"/>
      <point x="466" y="333"/>
      <point x="452" y="397" type="curve"/>
      <point x="434" y="465"/>
      <point x="392" y="501"/>
      <point x="327" y="501" type="curve" smooth="yes"/>
      <point x="217" y="501"/>
      <point x="129" y="383"/>
      <point x="105" y="282" type="curve"/>
    </contour>
    <contour>
      <point x="302" y="656" type="curve" smooth="yes"/>
      <point x="284" y="681"/>
      <point x="262" y="712"/>
      <point x="220" y="712" type="curve" smooth="yes"/>
      <point x="168" y="712"/>
      <point x="136" y="661"/>
      <point x="120" y="617" type="curve"/>
      <point x="150" y="607" type="line"/>
      <point x="160" y="638"/>
      <point x="186" y="680"/>
      <point x="220" y="680" type="curve" smooth="yes"/>
      <point x="240" y="680"/>
      <point x="251" y="674"/>
      <point x="277" y="637" type="curve" smooth="yes"/>
      <point x="296" y="610"/>
      <point x="319" y="579"/>
      <point x="360" y="579" type="curve" smooth="yes"/>
      <point x="404" y="579"/>
      <point x="447" y="625"/>
      <point x="464" y="681" type="curve"/>
      <point x="433" y="691" type="line"/>
      <point x="422" y="657"/>
      <point x="398" y="610"/>
      <point x="360" y="610" type="curve" smooth="yes"/>
      <point x="339" y="610"/>
      <point x="328" y="617"/>
    </contour>
  </outline>
</glyph>
<glyph name="ograve" format="1">
  <advance width="525"/>
  <unicode hex="00F2"/>
  <outline>
    <contour>
      <point x="357" y="602" type="line"/>
      <point x="327" y="582" type="line"/>
      <point x="198" y="712" type="line"/>
      <point x="239" y="737" type="line"/>
    </contour>
    <contour>
      <point x="252" y="0" type="curve" smooth="yes"/>
      <point x="138" y="0"/>
      <point x="52" y="107"/>
      <point x="52" y="233" type="curve" smooth="yes"/>
      <point x="52" y="380"/>
      <point x="153" y="500"/>
      <point x="284" y="500" type="curve" smooth="yes"/>
      <point x="397" y="500"/>
      <point x="484" y="395"/>
      <point x="484" y="271" type="curve" smooth="yes"/>
      <point x="484" y="123"/>
      <point x="378" y="0"/>
    </contour>
    <contour>
      <point x="279" y="467" type="curve" smooth="yes"/>
      <point x="177" y="467"/>
      <point x="91" y="358"/>
      <point x="91" y="231" type="curve" smooth="yes"/>
      <point x="91" y="123"/>
      <point x="157" y="32"/>
      <point x="254" y="32" type="curve" smooth="yes"/>
      <point x="354" y="32"/>
      <point x="446" y="140"/>
      <point x="446" y="266" type="curve" smooth="yes"/>
      <point x="446" y="375"/>
      <point x="372" y="467"/>
    </contour>
  </outline>
</glyph>
<glyph name="odieresis" format="1">
  <advance width="525"/>
  <unicode hex="00F6"/>
  <outline>
    <contour>
      <point x="244" y="669" type="line"/>
      <point x="188" y="660" type="line"/>
      <point x="182" y="596" type="line"/>
      <point x="236" y="604" type="line"/>
    </contour>
    <contour>
      <point x="410" y="669" type="line"/>
      <point x="355" y="660" type="line"/>
      <point x="349" y="596" type="line"/>
      <point x="403" y="604" type="line"/>
    </contour>
    <contour>
      <point x="252" y="0" type="curve" smooth="yes"/>
      <point x="378" y="0"/>
      <point x="484" y="123"/>
      <point x="484" y="271" type="curve" smooth="yes"/>
      <point x="484" y="395"/>
      <point x="397" y="500"/>
      <point x="284" y="500" type="curve" smooth="yes"/>
      <point x="153" y="500"/>
      <point x="52" y="380"/>
      <point x="52" y="233" type="curve" smooth="yes"/>
      <point x="52" y="107"/>
      <point x="138" y="0"/>
    </contour>
    <contour>
      <point x="279" y="467" type="curve" smooth="yes"/>
      <point x="372" y="467"/>
      <point x="446" y="375"/>
      <point x="446" y="266" type="curve" smooth="yes"/>
      <point x="446" y="140"/>
      <point x="354" y="32"/>
      <point x="254" y="32" type="curve" smooth="yes"/>
      <point x="157" y="32"/>
      <point x="91" y="123"/>
      <point x="91" y="231" type="curve" smooth="yes"/>
      <point x="91" y="358"/>
      <point x="177" y="467"/>
    </contour>
  </outline>
</glyph>
<glyph name="oslash" format="1">
  <advance width="525"/>
  <unicode hex="00F8"/>
  <outline>
    <contour>
      <point x="252" y="0" type="curve" smooth="yes"/>
      <point x="378" y="0"/>
      <point x="484" y="123"/>
      <point x="484" y="271" type="curve" smooth="yes"/>
      <point x="484" y="347"/>
      <point x="451" y="415"/>
      <point x="400" y="457" type="curve"/>
      <point x="440" y="526" type="line"/>
      <point x="413" y="543" type="line"/>
      <point x="374" y="476" type="line"/>
      <point x="347" y="491"/>
      <point x="316" y="500"/>
      <point x="284" y="500" type="curve" smooth="yes"/>
      <point x="153" y="500"/>
      <point x="52" y="380"/>
      <point x="52" y="233" type="curve" smooth="yes"/>
      <point x="52" y="161"/>
      <point x="80" y="94"/>
      <point x="126" y="51" type="curve"/>
      <point x="87" y="-16" type="line"/>
      <point x="113" y="-32" type="line"/>
      <point x="150" y="32" type="line"/>
      <point x="180" y="12"/>
      <point x="214" y="0"/>
    </contour>
    <contour>
      <point x="446" y="266" type="curve" smooth="yes"/>
      <point x="446" y="140"/>
      <point x="354" y="32"/>
      <point x="254" y="32" type="curve" smooth="yes"/>
      <point x="221" y="32"/>
      <point x="192" y="43"/>
      <point x="167" y="61" type="curve"/>
      <point x="381" y="425" type="line"/>
      <point x="420" y="388"/>
      <point x="446" y="330"/>
    </contour>
    <contour>
      <point x="279" y="467" type="curve" smooth="yes"/>
      <point x="306" y="467"/>
      <point x="332" y="458"/>
      <point x="355" y="444" type="curve"/>
      <point x="143" y="82" type="line"/>
      <point x="110" y="119"/>
      <point x="91" y="172"/>
      <point x="91" y="231" type="curve" smooth="yes"/>
      <point x="91" y="358"/>
      <point x="177" y="467"/>
    </contour>
  </outline>
</glyph>
<glyph name="udieresis" format="1">
  <advance width="506"/>
  <unicode hex="00FC"/>
  <outline>
    <contour>
      <point x="221" y="669" type="line"/>
      <point x="166" y="660" type="line"/>
      <point x="159" y="596" type="line"/>
      <point x="214" y="604" type="line"/>
    </contour>
    <contour>
      <point x="389" y="669" type="line"/>
      <point x="333" y="660" type="line"/>
      <point x="327" y="596" type="line"/>
      <point x="381" y="604" type="line"/>
    </contour>
    <contour>
      <point x="104" y="291" type="curve" smooth="yes"/>
      <point x="104" y="368"/>
      <point x="115" y="465"/>
      <point x="120" y="502" type="curve"/>
      <point x="84" y="495" type="line"/>
      <point x="73" y="425"/>
      <point x="69" y="335"/>
      <point x="69" y="291" type="curve" smooth="yes"/>
      <point x="69" y="148"/>
      <point x="68" y="-6"/>
      <point x="217" y="-6" type="curve" smooth="yes"/>
      <point x="292" y="-6"/>
      <point x="367" y="47"/>
      <point x="405" y="90" type="curve"/>
      <point x="405" y="2" type="line"/>
      <point x="449" y="9" type="line"/>
      <point x="449" y="502" type="line"/>
      <point x="410" y="495" type="line"/>
      <point x="409" y="175" type="line" smooth="yes"/>
      <point x="409" y="149"/>
      <point x="402" y="132"/>
      <point x="394" y="123" type="curve" smooth="yes"/>
      <point x="371" y="97"/>
      <point x="294" y="26"/>
      <point x="218" y="26" type="curve" smooth="yes"/>
      <point x="100" y="26"/>
      <point x="105" y="159"/>
    </contour>
  </outline>
</glyph>
<glyph name="yacute" format="1">
  <advance width="490"/>
  <unicode hex="00FD"/>
  <outline>
    <contour>
      <point x="173" y="617" type="line"/>
      <point x="313" y="730" type="line"/>
      <point x="351" y="698" type="line"/>
      <point x="199" y="593" type="line"/>
    </contour>
    <contour>
      <point x="442" y="496" type="line"/>
      <point x="476" y="479" type="line"/>
      <point x="160" y="-203" type="line"/>
      <point x="125" y="-186" type="line"/>
      <point x="237" y="52" type="line"/>
      <point x="24" y="478" type="line"/>
      <point x="59" y="495" type="line"/>
      <point x="256" y="97" type="line"/>
    </contour>
  </outline>
</glyph>
<glyph name="abreve" format="1">
  <advance width="494"/>
  <unicode hex="0103"/>
  <outline>
    <contour>
      <point x="437" y="475" type="line"/>
      <point x="392" y="497"/>
      <point x="342" y="513"/>
      <point x="289" y="513" type="curve" smooth="yes"/>
      <point x="116" y="513"/>
      <point x="52" y="325"/>
      <point x="52" y="222" type="curve" smooth="yes"/>
      <point x="52" y="95"/>
      <point x="131" y="7"/>
      <point x="238" y="7" type="curve" smooth="yes"/>
      <point x="293" y="7"/>
      <point x="357" y="39"/>
      <point x="399" y="65" type="curve"/>
      <point x="399" y="2" type="line"/>
      <point x="437" y="10" type="line"/>
    </contour>
    <contour>
      <point x="236" y="44" type="curve"/>
      <point x="129" y="46"/>
      <point x="91" y="144"/>
      <point x="91" y="224" type="curve" smooth="yes"/>
      <point x="91" y="316"/>
      <point x="144" y="477"/>
      <point x="294" y="477" type="curve" smooth="yes"/>
      <point x="329" y="477"/>
      <point x="378" y="459"/>
      <point x="402" y="450" type="curve"/>
      <point x="397" y="109" type="line"/>
      <point x="372" y="91"/>
      <point x="301" y="44"/>
    </contour>
    <contour>
      <point x="284" y="609" type="curve" smooth="yes"/>
      <point x="245" y="609"/>
      <point x="195" y="621"/>
      <point x="157" y="679" type="curve"/>
      <point x="141" y="662" type="line"/>
      <point x="166" y="614"/>
      <point x="220" y="582"/>
      <point x="286" y="582" type="curve" smooth="yes"/>
      <point x="345" y="582"/>
      <point x="402" y="617"/>
      <point x="423" y="666" type="curve"/>
      <point x="405" y="683" type="line"/>
      <point x="385" y="634"/>
      <point x="337" y="609"/>
    </contour>
  </outline>
</glyph>
<glyph name="Ccaron" format="1">
  <advance width="621"/>
  <unicode hex="010C"/>
  <outline>
    <contour>
      <point x="459" y="884" type="line"/>
      <point x="343" y="792" type="line"/>
      <point x="245" y="883" type="line"/>
      <point x="221" y="855" type="line"/>
      <point x="340" y="743" type="line"/>
      <point x="481" y="854" type="line"/>
    </contour>
    <contour>
      <point x="334" y="-1" type="curve" smooth="yes"/>
      <point x="435" y="-1"/>
      <point x="525" y="45"/>
      <point x="575" y="124" type="curve"/>
      <point x="552" y="147" type="line"/>
      <point x="508" y="70"/>
      <point x="433" y="33"/>
      <point x="334" y="33" type="curve" smooth="yes"/>
      <point x="196" y="33"/>
      <point x="86" y="150"/>
      <point x="86" y="292" type="curve" smooth="yes"/>
      <point x="86" y="433"/>
      <point x="199" y="647"/>
      <point x="341" y="647" type="curve" smooth="yes"/>
      <point x="428" y="647"/>
      <point x="479" y="609"/>
      <point x="508" y="575" type="curve"/>
      <point x="508" y="555" type="line"/>
      <point x="535" y="555" type="line"/>
      <point x="535" y="657" type="line"/>
      <point x="508" y="657" type="line"/>
      <point x="508" y="623" type="line"/>
      <point x="458" y="661"/>
      <point x="401" y="681"/>
      <point x="347" y="681" type="curve" smooth="yes"/>
      <point x="171" y="681"/>
      <point x="53" y="451"/>
      <point x="53" y="290" type="curve" smooth="yes"/>
      <point x="53" y="125"/>
      <point x="181" y="-1"/>
    </contour>
  </outline>
</glyph>
<glyph name="ccaron" format="1">
  <advance width="497"/>
  <unicode hex="010D"/>
  <outline>
    <contour>
      <point x="401" y="718" type="line"/>
      <point x="423" y="687" type="line"/>
      <point x="281" y="575" type="line"/>
      <point x="162" y="688" type="line"/>
      <point x="186" y="717" type="line"/>
      <point x="285" y="625" type="line"/>
    </contour>
    <contour>
      <point x="278" y="33" type="curve" smooth="yes"/>
      <point x="342" y="36"/>
      <point x="397" y="67"/>
      <point x="427" y="115" type="curve"/>
      <point x="452" y="90" type="line"/>
      <point x="415" y="35"/>
      <point x="353" y="3"/>
      <point x="279" y="0" type="curve" smooth="yes"/>
      <point x="275.555" y="-0.176677"/>
      <point x="272.117" y="-0.264045"/>
      <point x="268.688" y="-0.264045" type="curve" smooth="yes"/>
      <point x="155.675" y="-0.264045"/>
      <point x="53" y="94.6513"/>
      <point x="53" y="215" type="curve" smooth="yes"/>
      <point x="53" y="328"/>
      <point x="140" y="502"/>
      <point x="275" y="502" type="curve" smooth="yes"/>
      <point x="333" y="502"/>
      <point x="386" y="478"/>
      <point x="420" y="438" type="curve"/>
      <point x="394" y="413" type="line"/>
      <point x="367" y="450"/>
      <point x="325" y="469"/>
      <point x="277" y="469" type="curve" smooth="yes"/>
      <point x="168" y="469"/>
      <point x="88" y="316"/>
      <point x="88" y="217" type="curve" smooth="yes"/>
      <point x="88" y="65.6697"/>
      <point x="216.921" y="32.9089"/>
      <point x="273.021" y="32.9089" type="curve" smooth="yes"/>
      <point x="274.752" y="32.9089"/>
      <point x="276.414" y="32.9401"/>
    </contour>
  </outline>
</glyph>
<glyph name="Dcroat" format="1">
  <advance width="666"/>
  <unicode hex="0110"/>
  <outline>
    <contour>
      <point x="130" y="-1" type="line"/>
      <point x="171" y="-10"/>
      <point x="232" y="-15"/>
      <point x="266" y="-15" type="curve" smooth="yes"/>
      <point x="490" y="-15"/>
      <point x="615" y="98"/>
      <point x="615" y="300" type="curve" smooth="yes"/>
      <point x="615" y="452"/>
      <point x="545" y="566"/>
      <point x="414" y="627" type="curve" smooth="yes"/>
      <point x="354" y="656"/>
      <point x="266" y="680"/>
      <point x="147" y="680" type="curve" smooth="yes"/>
      <point x="130" y="680" type="line"/>
      <point x="130" y="340" type="line"/>
      <point x="37" y="340" type="line"/>
      <point x="30" y="300" type="line"/>
      <point x="130" y="300" type="line"/>
    </contour>
    <contour>
      <point x="165" y="646" type="line"/>
      <point x="212" y="645"/>
      <point x="312" y="636"/>
      <point x="398" y="595" type="curve" smooth="yes"/>
      <point x="520" y="538"/>
      <point x="580" y="439"/>
      <point x="580" y="300" type="curve" smooth="yes"/>
      <point x="580" y="194"/>
      <point x="543" y="116"/>
      <point x="472" y="70" type="curve"/>
      <point x="406" y="29"/>
      <point x="324" y="20"/>
      <point x="266" y="20" type="curve" smooth="yes"/>
      <point x="225" y="20"/>
      <point x="188" y="23"/>
      <point x="165" y="27" type="curve"/>
      <point x="165" y="300" type="line"/>
      <point x="269" y="300" type="line"/>
      <point x="276" y="340" type="line"/>
      <point x="165" y="340" type="line"/>
    </contour>
  </outline>
</glyph>
<glyph name="Eogonek" format="1">
  <advance width="601"/>
  <unicode hex="0118"/>
  <outline>
    <contour>
      <point x="539" y="-149" type="curve"/>
      <point x="556" y="-172" type="line"/>
      <point x="538" y="-191"/>
      <point x="501" y="-209"/>
      <point x="464" y="-209" type="curve" smooth="yes"/>
      <point x="407" y="-209"/>
      <point x="365" y="-168"/>
      <point x="365" y="-112" type="curve" smooth="yes"/>
      <point x="365" y="-66"/>
      <point x="395" y="-27"/>
      <point x="429" y="0" type="curve"/>
      <point x="68" y="0" type="line"/>
      <point x="68" y="681" type="line"/>
      <point x="541" y="681" type="line"/>
      <point x="533" y="644" type="line"/>
      <point x="105" y="644" type="line"/>
      <point x="105" y="373" type="line"/>
      <point x="497" y="373" type="line"/>
      <point x="486" y="336" type="line"/>
      <point x="105" y="336" type="line"/>
      <point x="105" y="37" type="line"/>
      <point x="545" y="37" type="line"/>
      <point x="530" y="0" type="line"/>
      <point x="483" y="0" type="line"/>
      <point x="462" y="-15" type="line" smooth="yes"/>
      <point x="435" y="-35"/>
      <point x="396" y="-63"/>
      <point x="396" y="-113" type="curve" smooth="yes"/>
      <point x="396" y="-152"/>
      <point x="426" y="-177"/>
      <point x="464" y="-177" type="curve" smooth="yes"/>
      <point x="499" y="-177"/>
      <point x="515" y="-166"/>
    </contour>
  </outline>
</glyph>
<glyph name="Ecaron" format="1">
  <advance width="601"/>
  <unicode hex="011A"/>
  <outline>
    <contour>
      <point x="415" y="884" type="line"/>
      <point x="436" y="854" type="line"/>
      <point x="295" y="743" type="line"/>
      <point x="177" y="855" type="line"/>
      <point x="201" y="883" type="line"/>
      <point x="298" y="792" type="line"/>
    </contour>
    <contour>
      <point x="105" y="37" type="line"/>
      <point x="545" y="37" type="line"/>
      <point x="530" y="0" type="line"/>
      <point x="68" y="0" type="line"/>
      <point x="68" y="681" type="line"/>
      <point x="541" y="681" type="line"/>
      <point x="533" y="644" type="line"/>
      <point x="105" y="644" type="line"/>
      <point x="105" y="373" type="line"/>
      <point x="497" y="373" type="line"/>
      <point x="486" y="336" type="line"/>
      <point x="105" y="336" type="line"/>
    </contour>
  </outline>
</glyph>
<glyph name="Hcircumflex" format="1">
  <advance width="673"/>
  <unicode hex="0124"/>
  <outline>
    <contour>
      <point x="579" y="672" type="line"/>
      <point x="616" y="679" type="line"/>
      <point x="616" y="18" type="line"/>
      <point x="579" y="3" type="line"/>
      <point x="579" y="361" type="line"/>
      <point x="104" y="295" type="line"/>
      <point x="104" y="18" type="line"/>
      <point x="67" y="3" type="line"/>
      <point x="67" y="672" type="line"/>
      <point x="104" y="679" type="line"/>
      <point x="104" y="333" type="line"/>
      <point x="579" y="399" type="line"/>
    </contour>
    <contour>
      <point x="232" y="743" type="line"/>
      <point x="210" y="771" type="line"/>
      <point x="350" y="884" type="line"/>
      <point x="469" y="771" type="line"/>
      <point x="446" y="745" type="line"/>
      <point x="347" y="833" type="line"/>
    </contour>
  </outline>
</glyph>
<glyph name="Lacute" format="1">
  <advance width="477"/>
  <unicode hex="0139"/>
  <outline>
    <contour>
      <point x="124" y="784" type="line"/>
      <point x="149" y="760" type="line"/>
      <point x="299" y="864" type="line"/>
      <point x="262" y="896" type="line"/>
    </contour>
    <contour>
      <point x="68" y="1" type="line"/>
      <point x="461" y="30" type="line"/>
      <point x="457" y="66" type="line"/>
      <point x="105" y="40" type="line"/>
      <point x="105" y="676" type="line"/>
      <point x="68" y="669" type="line"/>
    </contour>
  </outline>
</glyph>
<glyph name="lcaron" format="1">
  <advance width="280"/>
  <unicode hex="013E"/>
  <outline>
    <contour>
      <point x="89" y="689" type="line"/>
      <point x="127" y="698" type="line"/>
      <point x="127" y="9" type="line"/>
      <point x="89" y="2" type="line"/>
    </contour>
    <contour>
      <point x="247" y="699" type="line"/>
      <point x="304" y="669" type="line"/>
      <point x="218" y="513" type="line"/>
      <point x="185" y="532" type="line"/>
      <point x="241" y="632" type="line"/>
      <point x="204" y="654" type="line"/>
    </contour>
  </outline>
</glyph>
<glyph name="lslash" format="1">
  <advance width="256"/>
  <unicode hex="0142"/>
  <outline>
    <contour>
      <point x="235" y="393" type="line"/>
      <point x="213" y="425" type="line"/>
      <point x="150" y="384" type="line"/>
      <point x="150" y="698" type="line"/>
      <point x="112" y="689" type="line"/>
      <point x="112" y="361" type="line"/>
      <point x="27" y="307" type="line"/>
      <point x="50" y="276" type="line"/>
      <point x="112" y="315" type="line"/>
      <point x="112" y="2" type="line"/>
      <point x="150" y="9" type="line"/>
      <point x="150" y="338" type="line"/>
    </contour>
  </outline>
</glyph>
<glyph name="Ncaron" format="1">
  <advance width="605"/>
  <unicode hex="0147"/>
  <outline>
    <contour>
      <point x="426" y="884" type="line"/>
      <point x="310" y="792" type="line"/>
      <point x="212" y="883" type="line"/>
      <point x="188" y="855" type="line"/>
      <point x="307" y="743" type="line"/>
      <point x="448" y="854" type="line"/>
    </contour>
    <contour>
      <point x="513" y="672" type="line"/>
      <point x="513" y="45" type="line"/>
      <point x="114" y="680" type="line"/>
      <point x="68" y="666" type="line"/>
      <point x="69" y="3" type="line"/>
      <point x="103" y="11" type="line"/>
      <point x="103" y="631" type="line"/>
      <point x="495" y="1" type="line"/>
      <point x="547" y="12" type="line"/>
      <point x="547" y="679" type="line"/>
    </contour>
  </outline>
</glyph>
<glyph name="ncaron" format="1">
  <advance width="526"/>
  <unicode hex="0148"/>
  <outline>
    <contour>
      <point x="407" y="718" type="line"/>
      <point x="429" y="687" type="line"/>
      <point x="286" y="575" type="line"/>
      <point x="166" y="688" type="line"/>
      <point x="190" y="717" type="line"/>
      <point x="289" y="625" type="line"/>
    </contour>
    <contour>
      <point x="105" y="500" type="line"/>
      <point x="105" y="282" type="line"/>
      <point x="129" y="383"/>
      <point x="217" y="501"/>
      <point x="327" y="501" type="curve" smooth="yes"/>
      <point x="392" y="501"/>
      <point x="434" y="465"/>
      <point x="452" y="397" type="curve"/>
      <point x="466" y="333"/>
      <point x="469" y="244"/>
      <point x="469" y="109" type="curve" smooth="yes"/>
      <point x="469" y="10" type="line"/>
      <point x="433" y="3" type="line"/>
      <point x="433" y="144" type="line" smooth="yes"/>
      <point x="433" y="246"/>
      <point x="431" y="333"/>
      <point x="417" y="386" type="curve"/>
      <point x="404" y="444"/>
      <point x="375" y="467"/>
      <point x="324" y="467" type="curve" smooth="yes"/>
      <point x="274" y="467"/>
      <point x="218" y="445"/>
      <point x="160" y="337" type="curve" smooth="yes"/>
      <point x="125" y="272"/>
      <point x="106" y="202"/>
      <point x="105" y="126" type="curve" smooth="yes"/>
      <point x="104" y="10" type="line"/>
      <point x="68" y="2" type="line"/>
      <point x="68" y="493" type="line"/>
    </contour>
  </outline>
</glyph>
<glyph name="Sacute" format="1">
  <advance width="589"/>
  <unicode hex="015A"/>
  <outline>
    <contour>
      <point x="228" y="784" type="line"/>
      <point x="253" y="760" type="line"/>
      <point x="405" y="864" type="line"/>
      <point x="366" y="896" type="line"/>
    </contour>
    <contour>
      <point x="142" y="520" type="curve" smooth="yes"/>
      <point x="142" y="584"/>
      <point x="175" y="646"/>
      <point x="329" y="646" type="curve" smooth="yes"/>
      <point x="393" y="646"/>
      <point x="498" y="625"/>
      <point x="498" y="532" type="curve" smooth="yes"/>
      <point x="498" y="527" type="line"/>
      <point x="531" y="536" type="line"/>
      <point x="531" y="545" type="line" smooth="yes"/>
      <point x="531" y="650"/>
      <point x="418" y="681"/>
      <point x="329" y="681" type="curve" smooth="yes"/>
      <point x="229" y="681"/>
      <point x="100" y="657"/>
      <point x="100" y="519" type="curve" smooth="yes"/>
      <point x="100" y="415"/>
      <point x="212" y="366"/>
      <point x="309" y="340" type="curve" smooth="yes"/>
      <point x="479" y="294"/>
      <point x="495" y="218"/>
      <point x="495" y="183" type="curve" smooth="yes"/>
      <point x="495" y="82"/>
      <point x="404" y="33"/>
      <point x="302" y="33" type="curve" smooth="yes"/>
      <point x="226" y="33"/>
      <point x="142" y="67"/>
      <point x="109" y="145" type="curve"/>
      <point x="67" y="138" type="line"/>
      <point x="101" y="54"/>
      <point x="195" y="-1"/>
      <point x="307" y="-1" type="curve" smooth="yes"/>
      <point x="407" y="-1"/>
      <point x="534" y="57"/>
      <point x="534" y="183" type="curve" smooth="yes"/>
      <point x="534" y="275"/>
      <point x="458" y="337"/>
      <point x="316" y="378" type="curve" smooth="yes"/>
      <point x="206" y="409"/>
      <point x="142" y="449"/>
    </contour>
  </outline>
</glyph>
<glyph name="sacute" format="1">
  <advance width="450"/>
  <unicode hex="015B"/>
  <outline>
    <contour>
      <point x="169" y="617" type="line"/>
      <point x="195" y="593" type="line"/>
      <point x="347" y="698" type="line"/>
      <point x="309" y="730" type="line"/>
    </contour>
    <contour>
      <point x="373" y="386" type="line"/>
      <point x="404" y="394" type="line"/>
      <point x="404" y="403" type="line" smooth="yes"/>
      <point x="404" y="487"/>
      <point x="310" y="505"/>
      <point x="255" y="505" type="curve" smooth="yes"/>
      <point x="182" y="505"/>
      <point x="82" y="484"/>
      <point x="82" y="381" type="curve" smooth="yes"/>
      <point x="82" y="303"/>
      <point x="164" y="268"/>
      <point x="237" y="249" type="curve" smooth="yes"/>
      <point x="310" y="229"/>
      <point x="368" y="206"/>
      <point x="368" y="140" type="curve" smooth="yes"/>
      <point x="368" y="75"/>
      <point x="305" y="31"/>
      <point x="234" y="31" type="curve" smooth="yes"/>
      <point x="175" y="31"/>
      <point x="114" y="59"/>
      <point x="92" y="112" type="curve"/>
      <point x="57" y="107" type="line"/>
      <point x="81" y="35"/>
      <point x="154" y="0"/>
      <point x="234" y="0" type="curve" smooth="yes"/>
      <point x="290" y="0"/>
      <point x="406" y="30"/>
      <point x="406" y="141" type="curve" smooth="yes"/>
      <point x="406" y="215"/>
      <point x="353" y="254"/>
      <point x="244" y="284" type="curve" smooth="yes"/>
      <point x="161" y="306"/>
      <point x="119" y="333"/>
      <point x="119" y="380" type="curve" smooth="yes"/>
      <point x="119" y="433"/>
      <point x="149" y="474"/>
      <point x="255" y="475" type="curve" smooth="yes"/>
      <point x="307" y="475"/>
      <point x="373" y="456"/>
      <point x="373" y="390" type="curve" smooth="yes"/>
    </contour>
  </outline>
</glyph>
<glyph name="scedilla" format="1">
  <advance width="450"/>
  <unicode hex="015F"/>
  <outline>
    <contour>
      <point x="241" y="-186" type="curve" smooth="yes"/>
      <point x="227" y="-186"/>
      <point x="208" y="-180"/>
      <point x="196" y="-168" type="curve"/>
      <point x="179" y="-184" type="line"/>
      <point x="195" y="-200"/>
      <point x="217" y="-209"/>
      <point x="241" y="-209" type="curve" smooth="yes"/>
      <point x="288" y="-209"/>
      <point x="325" y="-171"/>
      <point x="325" y="-124" type="curve" smooth="yes"/>
      <point x="325" y="-73"/>
      <point x="286" y="-41"/>
      <point x="233" y="-41" type="curve" smooth="yes"/>
      <point x="219" y="-41" type="line"/>
      <point x="220" y="0" type="line"/>
      <point x="234" y="0" type="line" smooth="yes"/>
      <point x="290" y="0"/>
      <point x="406" y="30"/>
      <point x="406" y="141" type="curve" smooth="yes"/>
      <point x="406" y="215"/>
      <point x="353" y="254"/>
      <point x="244" y="284" type="curve" smooth="yes"/>
      <point x="161" y="306"/>
      <point x="119" y="333"/>
      <point x="119" y="380" type="curve" smooth="yes"/>
      <point x="119" y="433"/>
      <point x="149" y="474"/>
      <point x="255" y="475" type="curve" smooth="yes"/>
      <point x="307" y="475"/>
      <point x="373" y="456"/>
      <point x="373" y="390" type="curve" smooth="yes"/>
      <point x="373" y="386" type="line"/>
      <point x="404" y="394" type="line"/>
      <point x="404" y="403" type="line" smooth="yes"/>
      <point x="404" y="487"/>
      <point x="310" y="505"/>
      <point x="255" y="505" type="curve" smooth="yes"/>
      <point x="182" y="505"/>
      <point x="82" y="484"/>
      <point x="82" y="381" type="curve" smooth="yes"/>
      <point x="82" y="303"/>
      <point x="164" y="268"/>
      <point x="237" y="249" type="curve" smooth="yes"/>
      <point x="310" y="229"/>
      <point x="368" y="206"/>
      <point x="368" y="140" type="curve" smooth="yes"/>
      <point x="368" y="75"/>
      <point x="305" y="31"/>
      <point x="234" y="31" type="curve" smooth="yes"/>
      <point x="175" y="31"/>
      <point x="114" y="59"/>
      <point x="92" y="112" type="curve"/>
      <point x="57" y="107" type="line"/>
      <point x="78" y="43"/>
      <point x="138" y="8"/>
      <point x="208" y="1" type="curve"/>
      <point x="189" y="-52" type="line"/>
      <point x="210" y="-72" type="line"/>
      <point x="219" y="-66"/>
      <point x="235" y="-64"/>
      <point x="241" y="-64" type="curve" smooth="yes"/>
      <point x="275" y="-64"/>
      <point x="301" y="-91"/>
      <point x="301" y="-125" type="curve" smooth="yes"/>
      <point x="301" y="-159"/>
      <point x="275" y="-186"/>
    </contour>
  </outline>
</glyph>
<glyph name="uni0162" format="1">
  <advance width="512"/>
  <unicode hex="0162"/>
  <outline>
    <contour>
      <point x="233" y="2" type="line"/>
      <point x="233" y="644" type="line"/>
      <point x="11" y="644" type="line"/>
      <point x="11" y="681" type="line"/>
      <point x="509" y="681" type="line"/>
      <point x="509" y="644" type="line"/>
      <point x="271" y="644" type="line"/>
      <point x="271" y="9" type="line"/>
    </contour>
    <contour>
      <point x="259" y="-43" type="line"/>
      <point x="316" y="-73" type="line"/>
      <point x="230" y="-227" type="line"/>
      <point x="198" y="-208" type="line"/>
      <point x="254" y="-109" type="line"/>
      <point x="217" y="-88" type="line"/>
    </contour>
  </outline>
</glyph>
<glyph name="uni0163" format="1">
  <advance width="363"/>
  <unicode hex="0163"/>
  <outline>
    <contour>
      <point x="348" y="502" type="line"/>
      <point x="205" y="502" type="line"/>
      <point x="205" y="676" type="line"/>
      <point x="166" y="669" type="line"/>
      <point x="166" y="502" type="line"/>
      <point x="22" y="502" type="line"/>
      <point x="22" y="465" type="line"/>
      <point x="166" y="465" type="line"/>
      <point x="166" y="2" type="line"/>
      <point x="205" y="9" type="line"/>
      <point x="205" y="465" type="line"/>
      <point x="348" y="465" type="line"/>
    </contour>
    <contour>
      <point x="189" y="-44" type="line"/>
      <point x="146" y="-89" type="line"/>
      <point x="184" y="-110" type="line"/>
      <point x="128" y="-210" type="line"/>
      <point x="160" y="-229" type="line"/>
      <point x="246" y="-74" type="line"/>
    </contour>
  </outline>
</glyph>
<glyph name="tcaron" format="1">
  <advance width="419"/>
  <unicode hex="0165"/>
  <outline>
    <contour>
      <point x="345" y="744" type="line"/>
      <point x="402" y="713" type="line"/>
      <point x="316" y="558" type="line"/>
      <point x="283" y="577" type="line"/>
      <point x="340" y="677" type="line"/>
      <point x="302" y="699" type="line"/>
    </contour>
    <contour>
      <point x="348" y="502" type="line"/>
      <point x="348" y="465" type="line"/>
      <point x="204" y="465" type="line"/>
      <point x="204" y="9" type="line"/>
      <point x="166" y="2" type="line"/>
      <point x="166" y="465" type="line"/>
      <point x="22" y="465" type="line"/>
      <point x="22" y="502" type="line"/>
      <point x="166" y="502" type="line"/>
      <point x="166" y="669" type="line"/>
      <point x="204" y="676" type="line"/>
      <point x="204" y="502" type="line"/>
    </contour>
  </outline>
</glyph>
<glyph name="Uring" format="1">
  <advance width="674"/>
  <unicode hex="016E"/>
  <outline>
    <contour>
      <point x="342" y="0" type="curve" smooth="yes"/>
      <point x="107" y="0"/>
      <point x="68" y="199"/>
      <point x="68" y="463" type="curve" smooth="yes"/>
      <point x="68" y="532"/>
      <point x="69" y="635"/>
      <point x="70" y="671" type="curve"/>
      <point x="107" y="678" type="line"/>
      <point x="106" y="655"/>
      <point x="105" y="540"/>
      <point x="105" y="453" type="curve" smooth="yes"/>
      <point x="105" y="233"/>
      <point x="130" y="30"/>
      <point x="342" y="30" type="curve" smooth="yes"/>
      <point x="562" y="30"/>
      <point x="579" y="253"/>
      <point x="579" y="434" type="curve" smooth="yes"/>
      <point x="579" y="513"/>
      <point x="578" y="624"/>
      <point x="577" y="670" type="curve"/>
      <point x="615" y="678" type="line"/>
      <point x="616" y="653"/>
      <point x="616" y="556"/>
      <point x="616" y="480" type="curve" smooth="yes"/>
      <point x="616" y="247"/>
      <point x="597" y="0"/>
    </contour>
    <contour>
      <point x="343" y="743" type="curve" smooth="yes"/>
      <point x="280" y="743"/>
      <point x="236" y="786"/>
      <point x="236" y="838" type="curve" smooth="yes"/>
      <point x="236" y="897"/>
      <point x="293" y="948"/>
      <point x="363" y="948" type="curve" smooth="yes"/>
      <point x="429" y="948"/>
      <point x="470" y="900"/>
      <point x="470" y="853" type="curve" smooth="yes"/>
      <point x="470" y="783"/>
      <point x="402" y="743"/>
    </contour>
    <contour>
      <point x="360" y="923" type="curve" smooth="yes"/>
      <point x="320" y="923"/>
      <point x="261" y="890"/>
      <point x="261" y="838" type="curve" smooth="yes"/>
      <point x="261" y="797"/>
      <point x="296" y="767"/>
      <point x="345" y="767" type="curve" smooth="yes"/>
      <point x="393" y="767"/>
      <point x="444" y="804"/>
      <point x="444" y="850" type="curve" smooth="yes"/>
      <point x="444" y="891"/>
      <point x="408" y="923"/>
    </contour>
  </outline>
</glyph>
<glyph name="Uhungarumlaut" format="1">
  <advance width="674"/>
  <unicode hex="0170"/>
  <outline>
    <contour>
      <point x="199" y="784" type="line"/>
      <point x="225" y="760" type="line"/>
      <point x="375" y="864" type="line"/>
      <point x="337" y="896" type="line"/>
    </contour>
    <contour>
      <point x="365" y="784" type="line"/>
      <point x="390" y="760" type="line"/>
      <point x="540" y="864" type="line"/>
      <point x="503" y="896" type="line"/>
    </contour>
    <contour>
      <point x="342" y="0" type="curve" smooth="yes"/>
      <point x="597" y="0"/>
      <point x="616" y="247"/>
      <point x="616" y="480" type="curve" smooth="yes"/>
      <point x="616" y="556"/>
      <point x="616" y="653"/>
      <point x="615" y="678" type="curve"/>
      <point x="577" y="670" type="line"/>
      <point x="578" y="624"/>
      <point x="579" y="513"/>
      <point x="579" y="434" type="curve" smooth="yes"/>
      <point x="579" y="253"/>
      <point x="562" y="30"/>
      <point x="342" y="30" type="curve" smooth="yes"/>
      <point x="130" y="30"/>
      <point x="105" y="233"/>
      <point x="105" y="453" type="curve" smooth="yes"/>
      <point x="105" y="540"/>
      <point x="106" y="655"/>
      <point x="107" y="678" type="curve"/>
      <point x="70" y="671" type="line"/>
      <point x="69" y="635"/>
      <point x="68" y="532"/>
      <point x="68" y="463" type="curve" smooth="yes"/>
      <point x="68" y="199"/>
      <point x="107" y="0"/>
    </contour>
  </outline>
</glyph>
<glyph name="uhungarumlaut" format="1">
  <advance width="528"/>
  <unicode hex="0171"/>
  <outline>
    <contour>
      <point x="121" y="617" type="line"/>
      <point x="146" y="593" type="line"/>
      <point x="298" y="698" type="line"/>
      <point x="260" y="730" type="line"/>
    </contour>
    <contour>
      <point x="287" y="617" type="line"/>
      <point x="313" y="593" type="line"/>
      <point x="465" y="698" type="line"/>
      <point x="427" y="730" type="line"/>
    </contour>
    <contour>
      <point x="104" y="291" type="curve" smooth="yes"/>
      <point x="104" y="368"/>
      <point x="115" y="465"/>
      <point x="120" y="502" type="curve"/>
      <point x="84" y="495" type="line"/>
      <point x="73" y="425"/>
      <point x="69" y="335"/>
      <point x="69" y="291" type="curve" smooth="yes"/>
      <point x="69" y="148"/>
      <point x="68" y="-6"/>
      <point x="217" y="-6" type="curve" smooth="yes"/>
      <point x="292" y="-6"/>
      <point x="367" y="47"/>
      <point x="405" y="90" type="curve"/>
      <point x="405" y="2" type="line"/>
      <point x="449" y="9" type="line"/>
      <point x="449" y="502" type="line"/>
      <point x="410" y="495" type="line"/>
      <point x="409" y="175" type="line" smooth="yes"/>
      <point x="409" y="149"/>
      <point x="402" y="132"/>
      <point x="394" y="123" type="curve" smooth="yes"/>
      <point x="371" y="97"/>
      <point x="294" y="26"/>
      <point x="218" y="26" type="curve" smooth="yes"/>
      <point x="100" y="26"/>
      <point x="105" y="159"/>
    </contour>
  </outline>
</glyph>
<glyph name="zdotaccent" format="1">
  <advance width="443"/>
  <unicode hex="017C"/>
  <outline>
    <contour>
      <point x="272" y="669" type="line"/>
      <point x="217" y="660" type="line"/>
      <point x="210" y="596" type="line"/>
      <point x="265" y="604" type="line"/>
    </contour>
    <contour>
      <point x="404" y="0" type="line"/>
      <point x="411" y="37" type="line"/>
      <point x="78" y="37" type="line"/>
      <point x="420" y="468" type="line"/>
      <point x="402" y="502" type="line"/>
      <point x="65" y="502" type="line"/>
      <point x="57" y="465" type="line"/>
      <point x="375" y="465" type="line"/>
      <point x="33" y="35" type="line"/>
      <point x="51" y="0" type="line"/>
    </contour>
  </outline>
</glyph>
<glyph name="zcaron" format="1">
  <advance width="443"/>
  <unicode hex="017E"/>
  <outline>
    <contour>
      <point x="355" y="718" type="line"/>
      <point x="377" y="687" type="line"/>
      <point x="235" y="575" type="line"/>
      <point x="116" y="688" type="line"/>
      <point x="140" y="717" type="line"/>
      <point x="239" y="625" type="line"/>
    </contour>
    <contour>
      <point x="404" y="0" type="line"/>
      <point x="51" y="0" type="line"/>
      <point x="33" y="35" type="line"/>
      <point x="375" y="465" type="line"/>
      <point x="57" y="465" type="line"/>
      <point x="65" y="502" type="line"/>
      <point x="402" y="502" type="line"/>
      <point x="420" y="468" type="line"/>
      <point x="78" y="37" type="line"/>
      <point x="411" y="37" type="line"/>
    </contour>
  </outline>
</glyph>
<glyph name="caron" format="1">
  <advance width="490"/>
  <unicode hex="02C7"/>
  <outline>
    <contour>
      <point x="359" y="718" type="line"/>
      <point x="242" y="625" type="line"/>
      <point x="143" y="717" type="line"/>
      <point x="119" y="688" type="line"/>
      <point x="239" y="575" type="line"/>
      <point x="380" y="687" type="line"/>
    </contour>
  </outline>
</glyph>
<glyph name="dotaccent" format="1">
  <advance width="490"/>
  <unicode hex="02D9"/>
  <outline>
    <contour>
      <point x="281" y="644" type="line"/>
      <point x="274" y="579" type="line"/>
      <point x="220" y="571" type="line"/>
      <point x="226" y="635" type="line"/>
    </contour>
  </outline>
</glyph>
<glyph name="hungarumlaut" format="1">
  <advance width="490"/>
  <unicode hex="02DD"/>
  <outline>
    <contour>
      <point x="77" y="617" type="line"/>
      <point x="102" y="593" type="line"/>
      <point x="254" y="698" type="line"/>
      <point x="217" y="730" type="line"/>
    </contour>
    <contour>
      <point x="244" y="617" type="line"/>
      <point x="270" y="593" type="line"/>
      <point x="422" y="698" type="line"/>
      <point x="384" y="730" type="line"/>
    </contour>
  </outline>
</glyph>
<glyph name="emdash" format="1">
  <advance width="867"/>
  <unicode hex="2014"/>
  <outline>
    <contour>
      <point x="808" y="231" type="line"/>
      <point x="72" y="231" type="line"/>
      <point x="80" y="269" type="line"/>
      <point x="815" y="269" type="line"/>
    </contour>
  </outline>
</glyph>
<glyph name="quoteleft" format="1">
  <advance width="172"/>
  <unicode hex="2018"/>
  <outline>
    <contour>
      <point x="86" y="570" type="line"/>
      <point x="129" y="614" type="line"/>
      <point x="91" y="636" type="line"/>
      <point x="147" y="736" type="line"/>
      <point x="115" y="755" type="line"/>
      <point x="29" y="600" type="line"/>
    </contour>
  </outline>
</glyph>
<glyph name="quotesinglbase" format="1">
  <advance width="305"/>
  <unicode hex="201A"/>
  <outline>
    <contour>
      <point x="161" y="61" type="line"/>
      <point x="218" y="31" type="line"/>
      <point x="132" y="-124" type="line"/>
      <point x="100" y="-106" type="line"/>
      <point x="156" y="-6" type="line"/>
      <point x="118" y="16" type="line"/>
    </contour>
  </outline>
</glyph>
<glyph name="quotedblright" format="1">
  <advance width="338"/>
  <unicode hex="201D"/>
  <outline>
    <contour>
      <point x="88" y="756" type="line"/>
      <point x="46" y="711" type="line"/>
      <point x="83" y="689" type="line"/>
      <point x="27" y="589" type="line"/>
      <point x="59" y="571" type="line"/>
      <point x="146" y="726" type="line"/>
    </contour>
    <contour>
      <point x="261" y="756" type="line"/>
      <point x="218" y="711" type="line"/>
      <point x="256" y="689" type="line"/>
      <point x="200" y="589" type="line"/>
      <point x="232" y="571" type="line"/>
      <point x="318" y="726" type="line"/>
    </contour>
  </outline>
</glyph>
<glyph name="ellipsis" format="1">
  <advance width="724"/>
  <unicode hex="2026"/>
  <outline>
    <contour>
      <point x="133" y="74" type="line"/>
      <point x="78" y="66" type="line"/>
      <point x="72" y="1" type="line"/>
      <point x="126" y="9" type="line"/>
    </contour>
    <contour>
      <point x="400" y="74" type="line"/>
      <point x="345" y="66" type="line"/>
      <point x="338" y="1" type="line"/>
      <point x="393" y="9" type="line"/>
    </contour>
    <contour>
      <point x="666" y="74" type="line"/>
      <point x="611" y="66" type="line"/>
      <point x="605" y="1" type="line"/>
      <point x="659" y="9" type="line"/>
    </contour>
  </outline>
</glyph>
<glyph name="guilsinglright" format="1">
  <advance width="394"/>
  <unicode hex="203A"/>
  <outline>
    <contour>
      <point x="126" y="73" type="line"/>
      <point x="323" y="251" type="line"/>
      <point x="107" y="435" type="line"/>
      <point x="85" y="410" type="line"/>
      <point x="269" y="252" type="line"/>
      <point x="101" y="99" type="line"/>
    </contour>
  </outline>
</glyph>
<glyph name="Euro" format="1">
  <advance width="653"/>
  <unicode hex="20AC"/>
  <outline>
    <contour>
      <point x="429" y="0" type="curve" smooth="yes"/>
      <point x="286" y="0"/>
      <point x="155" y="126"/>
      <point x="145" y="272" type="curve"/>
      <point x="64" y="272" type="line"/>
      <point x="71" y="310" type="line"/>
      <point x="145" y="310" type="line"/>
      <point x="148" y="346"/>
      <point x="152" y="376"/>
      <point x="157" y="401" type="curve"/>
      <point x="64" y="401" type="line"/>
      <point x="71" y="440" type="line"/>
      <point x="169" y="440" type="line"/>
      <point x="191" y="514"/>
      <point x="291" y="699"/>
      <point x="441" y="699" type="curve" smooth="yes"/>
      <point x="503" y="699"/>
      <point x="556" y="681"/>
      <point x="597" y="646" type="curve"/>
      <point x="572" y="622" type="line"/>
      <point x="541" y="645"/>
      <point x="497" y="663"/>
      <point x="436" y="663" type="curve" smooth="yes"/>
      <point x="333" y="663"/>
      <point x="237" y="528"/>
      <point x="205" y="440" type="curve"/>
      <point x="444" y="440" type="line"/>
      <point x="437" y="401" type="line"/>
      <point x="192" y="401" type="line"/>
      <point x="185" y="370"/>
      <point x="181" y="340"/>
      <point x="178" y="310" type="curve"/>
      <point x="424" y="310" type="line"/>
      <point x="415" y="272" type="line"/>
      <point x="180" y="272" type="line"/>
      <point x="189" y="156"/>
      <point x="306" y="35"/>
      <point x="422" y="35" type="curve" smooth="yes"/>
      <point x="483" y="35"/>
      <point x="528" y="48"/>
      <point x="563" y="69" type="curve"/>
      <point x="588" y="44" type="line"/>
      <point x="543" y="15"/>
      <point x="487" y="0"/>
    </contour>
  </outline>
</glyph>
<glyph name="trademark" format="1">
  <advance width="549"/>
  <unicode hex="2122"/>
  <outline>
    <contour>
      <point x="283" y="699" type="line"/>
      <point x="283" y="672" type="line"/>
      <point x="162" y="672" type="line"/>
      <point x="162" y="490" type="line"/>
      <point x="134" y="483" type="line"/>
      <point x="134" y="672" type="line"/>
      <point x="4" y="672" type="line"/>
      <point x="4" y="699" type="line"/>
    </contour>
    <contour>
      <point x="543" y="698" type="line"/>
      <point x="610" y="486" type="line"/>
      <point x="585" y="482" type="line"/>
      <point x="526" y="666" type="line"/>
      <point x="460" y="488" type="line"/>
      <point x="422" y="480" type="line"/>
      <point x="373" y="668" type="line"/>
      <point x="301" y="490" type="line"/>
      <point x="268" y="482" type="line"/>
      <point x="353" y="691" type="line"/>
      <point x="394" y="697" type="line"/>
      <point x="441" y="512" type="line"/>
      <point x="506" y="692" type="line"/>
    </contour>
  </outline>
</glyph>
